<?xml version="1.0" encoding="UTF-8" standalone="no"?>
	<!-- Created with Inkscape (http://www.inkscape.org/) -->

<svg xmlns:dc="http://purl.org/dc/elements/1.1/" xmlns:cc="http://creativecommons.org/ns#"
	xmlns:rdf="http://www.w3.org/1999/02/22-rdf-syntax-ns#" xmlns:svg="http://www.w3.org/2000/svg"
	xmlns="http://www.w3.org/2000/svg" xmlns:xlink="http://www.w3.org/1999/xlink"
	xmlns:sodipodi="http://sodipodi.sourceforge.net/DTD/sodipodi-0.dtd"
	xmlns:inkscape="http://www.inkscape.org/namespaces/inkscape" id="svg2890"
	version="1.1" inkscape:version="0.47pre4 r22446" width="777" height="610"
	onload="Init()" sodipodi:docname="maze.svg">
	<metadata id="metadata2896">
		<rdf:RDF>
			<cc:Work rdf:about="">
				<dc:format>image/svg+xml</dc:format>
				<dc:type rdf:resource="http://purl.org/dc/dcmitype/StillImage" />
				<dc:title />
			</cc:Work>
		</rdf:RDF>
	</metadata>

	<script type="text/ecmascript">
<![CDATA[

var panda, mazeLines, root;

function Init()
  {
    panda = document.getElementById('panda');
    mazeLines = document.getElementById('mazeLines');
    root = document.documentElement;
    setTimeout("advance()", 100);
}

var x = 0;
var y= 0;

function advance() {
    if ( ++x > 700 ) x = 0;
    if ( ++y > 400 ) y = 0;   

	// move panda
	panda.setAttribute("transform", "translate(" + (x*2) + ", " + (y*2) + ")");

	// collision detection
	if(root.getIntersectionList(mazeLines.getBBox(), null) != null) {
		alert('hit');
		mazeLines.setAttribute('style','fill:#FF0000');
	}

    setTimeout("advance()", 100);    
}
  

]]>
	</script>
	<defs id="defs2894">
		<inkscape:perspective sodipodi:type="inkscape:persp3d"
			inkscape:vp_x="0 : 0.5 : 1" inkscape:vp_y="0 : 1000 : 0"
			inkscape:vp_z="1 : 0.5 : 1" inkscape:persp3d-origin="0.5 : 0.33333333 : 1"
			id="perspective2898" />
		<inkscape:perspective id="perspective3028"
			inkscape:persp3d-origin="0.5 : 0.33333333 : 1" inkscape:vp_z="1 : 0.5 : 1"
			inkscape:vp_y="0 : 1000 : 0" inkscape:vp_x="0 : 0.5 : 1"
			sodipodi:type="inkscape:persp3d" />
		<linearGradient inkscape:collect="always" xlink:href="#linearGradient9981"
			id="linearGradient9987" x1="347.03079" y1="324.96484" x2="341.64835"
			y2="348.14709" gradientUnits="userSpaceOnUse" />
		<linearGradient inkscape:collect="always" id="linearGradient9981">
			<stop style="stop-color:#ffffff;stop-opacity:1;" offset="0"
				id="stop9983" />
			<stop style="stop-color:#ffffff;stop-opacity:0;" offset="1"
				id="stop9985" />
		</linearGradient>
	</defs>
	<sodipodi:namedview pagecolor="#ffffff" bordercolor="#666666"
		borderopacity="1" objecttolerance="10" gridtolerance="10"
		guidetolerance="10" inkscape:pageopacity="0" inkscape:pageshadow="2"
		inkscape:window-width="1280" inkscape:window-height="750" id="namedview2892"
		showgrid="false" inkscape:zoom="1" inkscape:cx="328.5" inkscape:cy="357.72581"
		inkscape:window-x="0" inkscape:window-y="0" inkscape:window-maximized="1"
		inkscape:current-layer="svg2890" inkscape:snap-global="false" />
	<path style="fill:#000000"
		d="m 389.96515,610.34227 -387,0 193.5,-0.30729 c 106.425,-0.16901 280.575,-0.16901 387,0 l 193.5,0.30729 -387,0 z m 0,-1.20732 -388.2,0 0,-303.6 0,-303.6 386.28148,0.30368 386.28147,0.30368 1.61386,1.33938 1.61385,1.33938 0.30467,301.95695 0.30467,301.95693 -388.2,0 z m -167.90693,-1.8 215.61306,0 1.36329,-1.64267 1.36329,-1.64265 -0.31635,-82.65735 -0.31636,-82.65733 49.04521,0.32643 49.0452,0.32642 1.6548,-1.37336 1.65479,-1.37336 0,-13.50613 0,-13.50613 -1.61017,-1.33632 -1.61017,-1.33633 -64.08983,-0.32135 -64.08983,-0.32135 64.35307,-0.28926 64.35306,-0.28926 1.41495,-1.7049 1.41493,-1.7049 -0.36801,-15.3951 -0.368,-15.3951 65.8527,0.32021 65.8527,0.32021 1.6473,-1.36715 1.6473,-1.36714 0,-131.10613 0,-131.10613 -1.6689,-1.38506 -1.6689,-1.38506 -32.2311,0.33812 -32.2311,0.33813 0.5929,-16.8 0.5929,-16.8 0.3431,14.58294 0.34309,14.58294 1.6329,1.35519 1.63291,1.35519 32.2311,-0.33813 32.2311,-0.33813 0,135.6 0,135.6 -65.8527,-0.32021 -65.8527,-0.3202 -1.6473,1.36714 -1.6473,1.36714 0,30.30613 0,30.30613 1.64267,1.36329 1.64265,1.36329 82.65735,-0.31635 82.65733,-0.31636 -0.59886,49.8 -0.59885,49.8 -0.31525,-47.29404 -0.31525,-47.29404 -1.33283,-1.60596 -1.33283,-1.60596 -30.21306,0 -30.21307,0 -1.44,1.44 -1.44,1.44 -0.28566,47.46 -0.28567,47.46 -0.32844,-47.29404 -0.32844,-47.29404 -1.33283,-1.60596 -1.33283,-1.60596 -97.41306,0 -97.41307,0 -1.44,1.44 -1.44,1.44 0,80.52 0,80.52 1.44,1.44 1.44,1.44 47.68918,0 47.68918,0 0.80626,-1.30455 0.80627,-1.30456 1.30455,1.30456 1.30456,1.30455 13.92,0 13.92,0 1.44,-1.44 1.44,-1.44 0.28583,-48.06 0.28584,-48.06 0.3281,47.89384 0.32811,47.89385 1.33299,1.60615 1.333,1.60616 97.41306,0 97.41307,0 1.44,-1.44 1.44,-1.44 0,-114.12 0,-114.12 -1.44,-1.44 -1.44,-1.44 -31.56,0 -31.56,0 -0.002,-0.9 -0.002,-0.9 15.09496,0.36994 15.09496,0.36993 1.6004,-1.3282 1.60038,-1.32821 0.77766,1.25827 0.77764,1.25827 14.18225,0 14.18225,0 1.3508,-1.62762 1.35081,-1.62762 L 776.06981,186.60733 775.76595,4.33495 391.29115,4.0331 6.81633,3.73124 5.19114,5.08003 3.56595,6.42882 l 0,47.01307 0,47.01306 1.44,1.44 1.44,1.44 48.06,0.28584 48.06,0.28583 -47.89384,0.32811 -47.89384,0.3281 -1.60616,1.333 -1.60616,1.33299 0,97.41306 0,97.41307 1.44,1.44 1.44,1.44 98.46,0.29289 98.46,0.29289 -98.28554,0.31416 -98.28555,0.31417 -1.61445,1.33988 -1.61446,1.33988 0,147.81306 0,147.81307 1.44,1.44 1.44,1.44 215.61307,0 z m 0.17052,-1.49673 -216.33641,0.30326 -0.57232,-1.50326 C 5.00524,603.81142 4.88662,536.71495 5.05642,455.53495 l 0.30873,-147.6 99,-0.0108 99,-0.0108 -98.7,0.31733 -98.7,0.31814 0,148.19307 0,148.19306 215.99173,0 215.99173,0 0.32086,-82.5 0.32086,-82.5 -0.0126,82.8 -0.0126,82.8 -216.33641,0.30327 z m 269.40405,0.0108 -47.73238,0.3138 -0.5784,-1.5138 c -0.31812,-0.8326 -0.43856,-37.6938 -0.26764,-81.9138 l 0.31078,-80.4 98.4,0 98.4,0 0.021,48.6 0.0209,48.6 -0.33455,-48.3 -0.33455,-48.3 -97.78638,0 -97.78639,0 0,81 0,81 47.4,0 47.4,0 0,-64.2 0,-64.2 -30.58639,0 -30.58638,0 -0.33455,48.3 -0.33455,48.3 0.0209,-48.6 0.0209,-48.6 31.2,0 31.2,0 0,64.8 0,64.8 -47.73236,0.3138 z m 67.20939,0.0245 -14.12298,0.33828 -0.58895,-1.53828 c -0.32392,-0.84632 -0.44859,-30.15855 -0.27703,-65.13855 l 0.31193,-63.6 31.2,0 31.2,0 0.0202,48.6 0.0202,48.6 -0.33365,-48.3 -0.33365,-48.3 -30.58654,0 -30.58654,0 0,64.2 0,64.2 13.78654,0 13.78654,0 0.33416,-48.9 0.33415,-48.9 -0.0206,49.2 -0.0206,49.2 -14.12297,0.33828 z m 117.588,-0.0312 -98.13497,0.30702 -0.57906,-1.50902 c -0.31849,-0.82996 -0.43137,-23.10812 -0.25087,-49.50702 l 0.3282,-47.998 0.28584,48.9 0.28583,48.89967 97.8,0 97.8,0 0,-114.5804 0,-114.58039 -32.1,-0.35014 -32.1,-0.35012 32.4,0.0305 32.4,0.0305 0,115.2 0,115.2 -98.13497,0.30702 z m -134.36516,-64.9973 -0.32154,63.48995 -0.28917,-63.66 -0.28916,-63.66 -1.44,-1.44 -1.44,-1.44 -30.21307,0 -30.21306,0 -1.33283,1.60596 -1.33283,1.60596 -0.31525,47.29404 -0.31525,47.29404 -0.59885,-49.8 -0.59886,-49.8 68.4,0 68.4,0 -0.32642,49.04521 -0.32643,49.0452 1.37337,1.6548 1.37335,1.65479 30.30613,0 30.30613,0 1.333,-1.60616 1.33299,-1.60615 0.32811,-47.89385 0.3281,-47.89384 0.28584,48.06 0.28583,48.06 1.44,1.44 1.44,1.44 30.12,0 30.12,0 1.44,-1.44 1.44,-1.44 0,-80.61307 0,-80.61306 -1.61278,-1.33849 -1.61278,-1.33848 -81.48722,-0.30887 -81.48722,-0.30887 84,-0.59958 84,-0.59958 0,85.2 0,85.2 -68.4,0 -68.4,0 0.32642,-49.04521 0.32643,-49.0452 -1.37337,-1.6548 -1.37335,-1.65479 -30.30613,0 -30.30613,0 -1.33623,1.61005 -1.33623,1.61007 -0.32154,63.48993 z m -320.69987,35.90502 -184.8,5e-5 92.00567,-0.31499 c 50.60311,-0.17324 133.76311,-0.17326 184.8,-4e-5 l 92.79433,0.31494 -184.8,4e-5 z m 454.8,0.0241 -67.2,-3.2e-4 33.9852,-0.33828 c 18.69186,-0.18606 48.93186,-0.18592 67.2,3.1e-4 l 33.2148,0.33861 -67.2,-3.2e-4 z m -454.8,-1.23922 -186,0 0,-118.8 0,-118.8 99.46049,0.31374 99.4605,0.31372 1.6395,-1.36066 1.63951,-1.36064 0,-30.30613 0,-30.30613 -1.63951,-1.36067 -1.6395,-1.36067 -99.4605,0.31373 -99.46049,0.31374 0,-68.4 0,-68.4 49.04521,0.32643 49.0452,0.32642 1.6548,-1.37336 1.65479,-1.37336 0,-30.30613 0,-30.30613 -1.60616,-1.33299 -1.60616,-1.333 -47.89384,-0.31506 -47.89384,-0.31506 50.4,-0.59888 50.4,-0.59888 0,34.8 0,34.8 -49.04521,-0.32642 -49.04521,-0.32643 -1.65479,1.37337 -1.65479,1.37335 0,30.30613 0,30.30613 1.57472,1.30691 1.57472,1.3069 14.32528,0.38199 14.32528,0.38199 -14.46,0.25805 -14.46,0.25803 -1.44,1.44 -1.44,1.44 0,30.12 0,30.12 1.44,1.44 1.44,1.44 97.41307,0 97.41306,0 1.41495,-1.7049 1.41493,-1.7049 -0.36801,-15.3951 -0.368,-15.3951 15.70127,0.36241 15.70127,0.36242 1.42515,-1.7172 1.42516,-1.71722 -0.32643,-49.0452 -0.32642,-49.04521 33.6,0.59759 33.6,0.5976 -31.10195,0.32308 -31.10195,0.32307 -1.59805,1.32627 -1.59805,1.32626 0,30.30613 0,30.30613 1.59805,1.32627 1.59805,1.32626 31.10195,0.34185 31.10195,0.34183 -31.26,0.27883 -31.26,0.27883 -1.44,1.44 -1.44,1.44 -0.27845,47.46 -0.27845,47.46 -0.34258,-30.50238 -0.34258,-30.50239 -1.3259,-1.59761 -1.32591,-1.59762 -13.41306,0 -13.41307,0 -1.44,1.44 -1.44,1.44 0,46.92 0,46.92 1.44,1.44 1.44,1.44 30.21307,0 30.21306,0 1.37335,-1.65479 1.37337,-1.6548 -0.32643,-49.0452 -0.32642,-49.04521 32.2311,0.33813 32.2311,0.33813 1.6689,-1.38506 1.6689,-1.38507 0,-30.30613 0,-30.30613 -1.59805,-1.32626 -1.59805,-1.32627 -31.10195,-0.34184 -31.10195,-0.34183 31.26,-0.27884 31.26,-0.27883 1.44,-1.44 1.44,-1.44 0,-30.21307 0,-30.21306 -1.60616,-1.33299 -1.60616,-1.333 -47.89384,-0.31506 -47.89384,-0.31506 50.4,-0.59888 50.4,-0.59888 0,68.4 0,68.4 -32.52281,-0.33647 -32.52279,-0.33645 -1.40362,1.69125 -1.40363,1.69126 0.32643,49.0452 0.32642,49.04521 -133.06451,-0.3104 -133.06451,-0.31041 -1.63549,1.35735 -1.63549,1.35733 0,114.21306 0,114.21307 1.44,1.44 1.44,1.44 30.21307,0 30.21306,0 1.3069,-1.57472 1.30691,-1.57471 0.38199,-14.32529 0.38199,-14.32528 0.25804,14.46 0.25804,14.46 1.44,1.44 1.44,1.44 30.21307,0 30.21306,0 1.30691,-1.57472 1.3069,-1.57471 0.38199,-14.32529 0.38199,-14.32528 0.25804,14.46 0.25804,14.46 1.44,1.44 1.44,1.44 30.12,0 30.12,0 1.44,-1.44 1.44,-1.44 0,-30.12 0,-30.12 -1.44,-1.44 -1.44,-1.44 -13.41307,0 -13.41306,0 -1.30552,1.57305 -1.3055,1.57304 -0.38491,13.72696 -0.38493,13.72695 -0.2565,-13.86 -0.25651,-13.86 -1.44,-1.44 -1.44,-1.44 -30.21307,0 -30.21306,0 -1.30552,1.57305 -1.3055,1.57304 -0.38491,13.72696 -0.38493,13.72695 -0.2565,-13.86 -0.25651,-13.86 -1.44,-1.44 -1.44,-1.44 -30.21307,0 -30.21306,0 -1.30551,1.57305 -1.30551,1.57304 -0.38492,13.72696 c -0.2117,7.54982 -0.37013,-23.26305 -0.35207,-68.47305 l 0.0328,-82.2 0.32117,64.68972 0.32116,64.68972 1.34974,1.62634 1.34975,1.62633 82.93974,-0.31605 82.93974,-0.31606 -0.368,15.3951 -0.36801,15.3951 1.41493,1.7049 1.41495,1.7049 65.55306,0.28945 65.55307,0.28944 -65.28961,0.32099 -65.2896,0.32098 -1.6104,1.3365 -1.61039,1.33651 0,13.41306 0,13.41307 1.44,1.44 1.44,1.44 80.52,0 80.52,0 1.44,-1.44 1.44,-1.44 0,-30.21307 0,-30.21306 -1.61028,-1.33642 -1.61028,-1.33641 -64.68972,-0.32117 -64.68972,-0.32116 64.95307,-0.28935 64.95306,-0.28936 1.36714,-1.6473 1.36715,-1.6473 -0.32021,-65.8527 -0.32021,-65.8527 15.3951,0.36801 15.3951,0.368 1.7049,-1.41493 1.7049,-1.41495 0,-30.30613 0,-30.30613 -1.57472,-1.30691 -1.57472,-1.30689 -14.32528,-0.382 -14.32528,-0.38198 14.55307,-0.25805 14.55306,-0.25804 1.41495,-1.7049 1.41493,-1.7049 -0.36801,-15.3951 -0.368,-15.3951 16.2,0.59091 16.2,0.5909 -13.72696,0.35052 -13.72695,0.35052 -1.57305,1.3055 -1.57304,1.30552 0,47.01306 0,47.01307 1.44,1.44 1.44,1.44 30.81307,0 30.81306,0 1.41495,-1.7049 1.41493,-1.7049 -0.36801,-15.3951 -0.368,-15.3951 49.04521,0.32643 49.0452,0.32642 1.6548,-1.37336 1.65479,-1.37336 0,-13.41306 0,-13.41307 -1.44,-1.44 -1.44,-1.44 -63.81307,0 -63.81306,0 -1.30552,1.57305 -1.3055,1.57304 -0.35052,13.72696 -0.35052,13.72695 -0.59091,-16.2 -0.5909,-16.2 15.3951,0.36801 15.3951,0.368 1.7049,-1.41493 1.7049,-1.41495 0,-64.58224 0,-64.58225 -1.25827,-0.77765 -1.25827,-0.77766 1.297,-1.5628 1.29702,-1.56279 -0.33874,-31.93119 -0.33874,-31.93118 0.9,8.1e-4 0.9,8.2e-4 0,98.85307 0,98.85306 1.65479,1.37336 1.6548,1.37336 49.0452,-0.32642 49.04521,-0.32643 0,18 0,18 -49.04521,-0.32642 -49.0452,-0.32643 -1.71721,1.42516 -1.7172,1.42516 0.36241,15.70126 0.36241,15.70127 -49.64555,-0.32613 -49.64556,-0.32614 -1.65444,1.37308 -1.65445,1.37306 0,14.18225 0,14.18225 1.25827,0.77764 1.25827,0.77766 -1.27452,1.53569 -1.2745,1.5357 0.31623,83.25747 0.31625,83.25747 -186,0 z m 253.1,-0.69474 -2.3,-0.0947 1.575,-0.63027 1.575,-0.63026 0.725,0.72499 0.725,0.725 -2.3,-0.0948 z M 34.46483,515.9262 l -0.32304,58.40875 1.1e-4,-117.6 1.1e-4,-117.6 0.32293,59.19125 c 0.17761,32.55518 0.17756,85.47518 -1.1e-4,117.6 z m 374.39618,-24.69125 -0.32068,81.9 0.0124,-82.2 0.0124,-82.2 65.4,0 65.4,0 0,14.4 0,14.4 -49.2,0.0206 -49.2,0.0206 48.9,-0.33415 48.9,-0.33415 0,-13.78655 0,-13.78654 -64.79173,0 -64.79173,0 -0.32068,81.9 z m 337.20353,41.48797 -0.33151,41.61203 2e-4,-84 2.2e-4,-84 0.33129,42.38797 c 0.18222,23.31339 0.18213,61.11339 -2e-4,84 z M 70.43529,572.25527 39.50542,572.5756 38.92583,571.05527 C 38.60705,570.2191 38.48549,518.23495 38.65569,455.53495 l 0.30946,-114 132.6,-0.008 132.6,-0.008 -132.3,0.31311 -132.3,0.31309 0,114.59477 0,114.59475 30.56415,0 30.56415,0 0.39186,-15.00182 0.39187,-15.00183 -0.056,15.30183 -0.056,15.30182 -30.92987,0.32032 z m 67.19999,0 -30.92986,0.32033 -0.61021,-1.59018 c -0.33561,-0.87461 -0.43829,-8.03876 -0.22817,-15.92033 l 0.38203,-14.33014 0.25804,15.3 0.25804,15.3 30.56414,0 30.56416,0 0.39186,-15.00182 0.39187,-15.00183 -0.056,15.30183 -0.056,15.30182 -30.92987,0.32032 z m 67.2,0 -30.92985,0.32033 -0.61022,-1.59018 c -0.33561,-0.87461 -0.4383,-8.03876 -0.22818,-15.92033 l 0.38204,-14.33014 0.25804,15.3 0.25804,15.3 30.6,0 30.6,0 0,-30.6 0,-30.6 -13.76306,0 -13.76307,0 -0.39231,14.1 -0.39232,14.1 0.0553,-14.4 0.0554,-14.4 14.4,0 14.4,0 0,31.2 0,31.2 -30.92987,0.32032 z m 117.59543,-0.012 -81.33444,0.3084 -0.60842,-1.58553 c -0.33462,-0.87202 -0.45413,-7.4908 -0.26556,-14.7084 l 0.34286,-13.12279 66.30013,-0.0154 66.30013,-0.0154 -66.00013,0.32554 -66.00013,0.32553 0,13.78985 0,13.78984 81,0 81,0 0,-30.58975 0,-30.58976 -65.1,-0.32562 -65.1,-0.32562 65.4,0.0154 65.4,0.0154 0,31.2 0,31.2 -81.33444,0.3084 z m 150.03307,-24.0084 -0.35006,24.9 0,-49.8 0,-49.8 0.35006,24.9 c 0.19253,13.695 0.19253,36.105 0,49.8 z m 170.3715,24.02031 -30.92985,0.32033 -0.58418,-1.52232 c -0.32128,-0.83727 -0.43647,-23.12142 -0.25597,-49.52031 l 0.3282,-47.99801 0.28584,48.9 0.28583,48.90008 30.58654,0 30.58654,0 0.33416,-48.9 0.33415,-48.9 -0.0206,49.2 -0.0206,49.2 -30.92987,0.32032 z m 67.2,0 -30.92985,0.32033 -0.58418,-1.52232 c -0.32128,-0.83727 -0.43647,-23.12142 -0.25597,-49.52031 l 0.3282,-47.99801 0.28584,48.9 0.28583,48.90008 30.6,0 30.6,0 0,-80.99173 0,-80.99173 -82.5,-0.32086 -82.5,-0.32085 82.8,0.0126 82.8,0.0126 0,81.6 0,81.6 -30.92987,0.32031 z m -334.94513,-30.04522 -0.725,0.72499 0.0948,-2.29999 0.0947,-2.30001 0.63026,1.575 0.63027,1.575 -0.72499,0.72501 z m -305.025,-0.96975 -2.3,-0.0947 1.575,-0.63026 1.575,-0.63026 0.725,0.72499 0.725,0.725 -2.3,-0.0948 z m 67.2,0 -2.3,-0.0947 1.575,-0.63026 1.575,-0.63027 0.725,0.725 0.725,0.725 -2.3,-0.0948 z m 67.2,0 -2.3,-0.0947 1.575,-0.63026 1.575,-0.63027 0.725,0.725 0.725,0.725 -2.3,-0.0948 z m 438,0 -2.3,-0.0947 1.575,-0.63026 1.575,-0.63027 0.725,0.725 0.725,0.725 -2.3,-0.0948 z m 67.2,0 -2.3,-0.0947 1.575,-0.63026 1.575,-0.63027 0.725,0.725 0.725,0.725 -2.3,-0.0948 z m -606,-1.2 -2.3,-0.0947 1.575,-0.63026 1.575,-0.63027 0.725,0.725 0.725,0.725 -2.3,-0.0948 z m 67.2,0 -2.3,-0.0947 1.575,-0.63026 1.575,-0.63027 0.725,0.725 0.725,0.725 -2.3,-0.0948 z m -102.80051,-42.20526 -0.33162,41.7 0,-83.4 0,-83.4 0.33162,41.7 c 0.18238,22.935 0.18238,60.465 0,83.4 z m 4.77964,26.70195 -0.39474,14.40194 0.0578,-14.70194 0.0578,-14.70195 31.2,0 31.2,0 0.0553,14.4 0.0553,14.4 -0.39232,-14.1 -0.39219,-14.1 -30.52613,0 -30.52613,0 -0.39474,14.40195 z m 67.2,0 -0.39474,14.40194 0.0578,-14.70194 0.0578,-14.70195 31.2,0 31.2,0 0.0554,14.4 0.0553,14.4 -0.39232,-14.1 -0.39231,-14.1 -30.52613,0 -30.52613,0 -0.39474,14.40195 z m 167.38321,14.10842 -66.33766,0.28963 -0.60242,-1.56986 c -0.33132,-0.86343 -0.4305,-8.01843 -0.22038,-15.9 l 0.38204,-14.33014 0.25804,15.28984 0.25804,15.28985 66.3,0.32052 66.3,0.32053 -66.33766,0.28963 z m 337.83086,-48.01037 -0.33404,47.7 0.0204,-48 0.0204,-48 31.2,0 31.2,0 0.0206,48.30024 0.0206,48.30024 -0.33428,-48.00024 -0.33419,-48.00024 -30.57277,0 -30.57277,0 -0.33403,47.7 z m 67.20543,24 -0.35006,24.9 0,-49.8 0,-49.8 0.35006,24.9 c 0.19253,13.695 0.19253,36.105 0,49.8 z m -441.77363,-6.02499 -0.725,0.72499 0.0947,-2.29999 0.0947,-2.30001 0.63026,1.575 0.63027,1.575 -0.72499,0.72501 z m 304.575,-2.16975 -2.3,-0.0947 1.575,-0.63026 1.575,-0.63027 0.725,0.725 0.725,0.725 -2.3,-0.0948 z m -419.63766,-1.39685 -82.53766,0.29159 -0.57417,-1.5 c -0.31579,-0.825 -0.42905,-30.66 -0.25169,-66.3 l 0.32247,-64.8 0.28936,65.69173 0.28935,65.69174 82.5,0.31666 82.5,0.31668 -82.53766,0.2916 z m 182.13766,-0.29275 -66,0.0156 65.68976,-0.32589 65.68976,-0.3259 0.32589,-65.68975 0.3259,-65.68977 -0.0156,66 -0.0157,66 -66,0.0157 z m -99.6,-28.79519 -134.4,-8e-5 67.59229,-0.32023 c 37.17576,-0.17613 97.65576,-0.17608 134.4,9e-5 l 66.80771,0.32031 -134.4,-9e-5 z m 0,-1.22047 -135.6,0 0,-51.6 0,-51.6 116.26278,0.31185 116.26278,0.31183 1.66285,-1.38005 1.66287,-1.38005 -0.32565,-49.33178 -0.32563,-49.3318 32.83182,0.33754 32.83182,0.33753 1.66818,-1.38447 1.66818,-1.38447 0,-97.50613 0,-97.50613 -1.61039,-1.33651 -1.6104,-1.3365 -65.2896,-0.31583 -65.28961,-0.31583 135,-0.5946 135,-0.5946 -0.31374,99.46049 -0.31373,99.4605 1.36067,1.6395 1.36067,1.63951 30.21306,0 30.21307,0 1.44,-1.44 1.44,-1.44 0,-30.12 0,-30.12 -1.44,-1.44 -1.44,-1.44 -13.41307,0 -13.41306,0 -1.30552,1.57305 -1.3055,1.57304 -0.38491,13.72696 c -0.21171,7.54982 -0.50036,-30.31005 -0.64143,-84.13305 l -0.25651,-97.86 -1.44,-1.44 -1.44,-1.44 -165.21307,0 -165.21306,0 -1.36329,1.64266 -1.36329,1.64267 0.31635,82.65734 0.31636,82.65733 -15.3951,-0.368 -15.3951,-0.36801 -1.76731,1.46674 -1.76731,1.46674 0.36241,15.70126 0.36241,15.70127 -67.2,-0.56804 -67.2,-0.56805 14.32528,-0.37198 14.32528,-0.37199 1.57472,-1.3069 1.57472,-1.30691 0,-30.30613 0,-30.30613 -1.57472,-1.30691 -1.57472,-1.30689 -14.32528,-0.382 -14.32528,-0.38198 48.06,-0.25805 48.06,-0.25804 1.44,-1.44 1.44,-1.44 0,-63.81306 0,-63.81307 -1.60616,-1.33299 -1.60616,-1.333 -47.89384,-0.3281 -47.89384,-0.32811 66,-0.0278 c 36.3,-0.0153 59.55362,0.1441 51.67472,0.3542 l -14.32528,0.38199 -1.57472,1.3069 -1.57472,1.3069 0,30.30613 0,30.30614 1.57472,1.3069 1.57472,1.3069 14.32528,0.38199 14.32528,0.382 -14.46,0.25803 -14.46,0.25804 -1.44,1.44 -1.44,1.44 0,30.21308 0,30.21305 1.57472,1.30691 1.57472,1.3069 14.32528,0.38199 14.32528,0.38199 -48.06,0.25805 -48.06,0.25803 -1.44,1.44 -1.44,1.44 0,30.12 0,30.12 1.44,1.44 1.44,1.44 46.92,0 46.92,0 1.44,-1.44 1.44,-1.44 0,-13.41307 0,-13.41306 -1.59805,-1.32626 -1.59805,-1.32627 -31.10195,-0.34184 -31.10195,-0.34183 48.06,-0.27884 48.06,-0.27883 1.44,-1.44 1.44,-1.44 0,-30.21307 0,-30.21306 -1.57472,-1.30691 -1.57472,-1.30689 -14.32528,-0.382 -14.32528,-0.38198 14.46,-0.25805 14.46,-0.25804 1.44,-1.44 1.44,-1.44 0,-30.21306 0,-30.21307 -1.57472,-1.3069 -1.57472,-1.3069 -14.32528,-0.382 -14.32528,-0.38199 14.55307,-0.25804 14.55306,-0.25804 1.41495,-1.70489 1.41493,-1.7049 -0.36801,-15.3951 -0.368,-15.39511 253.8,0 253.8,0 -0.59989,166.8 -0.59989,166.8 -0.3044,-164.28221 -0.30439,-164.2822 -1.34264,-1.61779 -1.34266,-1.6178 -80.61306,0 -80.61307,0 -1.44,1.44 -1.44,1.44 0,47.01307 0,47.01307 1.57472,1.3069 1.57472,1.3069 14.32528,0.382 14.32528,0.38198 -14.46,0.25805 -14.46,0.25803 -1.44,1.44 -1.44,1.44 0,30.21307 0,30.21306 1.7049,1.41495 1.7049,1.41493 15.3951,-0.368 15.3951,-0.36801 0,34.8 0,34.8 -34.8,0 -34.8,0 0.31374,-99.46049 0.31373,-99.46049 -1.36067,-1.63951 -1.36067,-1.63951 -63.81306,0 -63.81307,0 -1.44,1.44 -1.44,1.44 0,80.61307 0,80.61306 1.57472,1.30691 1.57472,1.3069 14.32528,0.38199 14.32528,0.38199 -14.55307,0.25805 -14.55306,0.25803 -1.41495,1.7049 -1.41493,1.7049 0.36801,15.3951 0.368,15.3951 -33.12325,-0.33593 -33.12325,-0.33591 -1.40318,1.69071 -1.40317,1.69072 0.32643,49.0452 0.32642,49.04521 -116.26278,-0.31184 -116.26278,-0.31183 -1.63722,1.35877 -1.63722,1.35877 0,30.30613 0,30.30613 1.61566,1.34088 1.61565,1.34087 115.08435,0.31217 115.08434,0.31216 -115.26,0.29389 -115.26,0.2939 -1.44,1.44 -1.44,1.44 0,13.32 0,13.32 1.44,1.44 1.44,1.44 130.92,0 130.92,0 1.44,-1.44 1.44,-1.44 0,-30.21307 0,-30.21306 -1.61566,-1.34088 -1.61565,-1.34087 -115.08435,-0.31217 -115.08434,-0.31215 115.26,-0.29389 115.26,-0.29391 1.44,-1.44 1.44,-1.44 0.25946,-48.06 0.25947,-48.06 0.37927,14.92372 0.37926,14.9237 1.13272,1.36485 1.13271,1.36484 -1.19154,1.19154 -1.19155,1.19155 0.3201,66.5199 0.3201,66.5199 -135.6,0 z m -136.50161,-26.01921 -0.34982,24.81921 5.4e-4,-50.4 5.4e-4,-50.4 0.34928,25.58079 c 0.1921,14.06942 0.19185,36.74942 -5.4e-4,50.4 z m 273.59619,-40.84602 -0.32589,65.66523 0.0156,-66 0.0157,-66 16.2,-0.0564 16.2,-0.0564 -15.88976,0.39117 -15.88978,0.39116 -0.32588,65.66525 z m 300.80542,64.97049 -2.3,-0.0947 1.575,-0.63026 1.575,-0.63027 0.725,0.725 0.725,0.725 -2.3,-0.0948 z m -437.63563,-1.39997 -131.73563,0.3053 -0.60723,-1.58242 c -0.33397,-0.87032 -0.45294,-7.4877 -0.26437,-14.70529 l 0.34286,-13.12288 116.10005,-0.008 116.10005,-0.008 -115.80005,0.31497 -115.80005,0.31377 0,13.79403 0,13.79403 131.4,0 131.4,0 0,-30.59403 0,-30.59403 -115.80005,-0.31497 -115.80005,-0.31497 116.10005,0.008 116.10005,0.008 0,31.2 0,31.2 -131.73563,0.30529 z m 303.33563,-0.26606 -67.2,-3.2e-4 33.9852,-0.33828 c 18.69186,-0.18606 48.93186,-0.18592 67.2,3.1e-4 l 33.2148,0.3386 -67.2,-3.1e-4 z m -201.475,-29.76422 -0.725,0.72499 0.0948,-2.29999 0.0947,-2.30001 0.63026,1.575 0.63027,1.575 -0.72499,0.72501 z m -117.46266,-3.56897 -116.13766,0.29396 -0.58391,-1.52165 c -0.32115,-0.8369 -0.43921,-15.0119 -0.26234,-31.5 l 0.32157,-29.97835 116.4,-0.01 116.4,-0.01 -116.1,0.31503 -116.1,0.31501 0,30.58806 0,30.58806 116.1,0.31201 116.1,0.312 -116.13766,0.29396 z m 404.4,0.002 -82.53766,0.29159 -0.58391,-1.52165 c -0.32116,-0.83691 -0.4392,-15.01191 -0.26235,-31.5 l 0.32158,-29.97838 66,-0.0157 66,-0.0156 -65.7,0.3259 -65.7,0.32591 0,30.58148 0,30.58148 82.5,0.31667 82.5,0.31668 -82.53766,0.2916 z m -490.93734,-30.03343 -0.725,0.72499 0.0948,-2.29999 0.0947,-2.30001 0.63026,1.575 0.63027,1.575 -0.72499,0.72501 z m 438,0 -0.725,0.72499 0.0948,-2.29999 0.0947,-2.30001 0.63026,1.575 0.63027,1.575 -0.72499,0.72501 z m -320.525,-3.86596 -116.4,0.01 116.08655,-0.31501 116.08653,-0.31501 0.33416,-48.89404 0.33415,-48.89404 -0.0206,49.2 -0.0206,49.2 -116.4,0.01 z m 220.46632,0.30131 -65.1337,0.31034 -0.60917,-1.58747 c -0.33504,-0.8731 -0.45488,-7.49276 -0.26631,-14.71035 l 0.34286,-13.12288 49.2,-0.0199 49.2,-0.0199 -48.9,0.33328 -48.9,0.33329 0,13.78668 0,13.78669 64.76414,0 64.76416,0 0.39186,-15.00183 0.39187,-15.00182 -0.056,15.30182 -0.056,15.30173 -65.13368,0.31036 z m 185.13368,-0.27844 -84,-2.1e-4 42.38797,-0.3313 c 23.31339,-0.18222 61.11339,-0.18212 84,2e-4 l 41.61203,0.33152 -84,-2.1e-4 z m -589.3,-31.92626 -2.3,-0.0947 1.575,-0.63026 1.575,-0.63026 0.725,0.72499 0.725,0.725 -2.3,-0.0948 z m 271.59326,-48.786 -0.33364,48.28074 0.0202,-48.6 0.0202,-48.6 32.70049,-0.0295 32.70049,-0.0295 -32.38705,0.34875 -32.38704,0.34873 -0.33363,48.28074 z m 169.18647,33.89599 -0.39176,14.9884 0.056,-15.30182 0.056,-15.30183 48.6,-0.0202 48.6,-0.0202 -48.26425,0.33363 -48.26424,0.33361 -0.39178,14.98839 z m 168.02002,-51.22296 -0.32031,66.80771 9e-5,-134.4 8e-5,-134.4 0.32023,67.59229 c 0.17613,37.17576 0.17608,97.65576 -9e-5,134.4 z m -458.69975,64.41676 -116.4,0.01 116.08655,-0.31501 116.08653,-0.31501 0.33416,-48.89404 0.33415,-48.89404 -0.0206,49.2 -0.0206,49.2 -116.4,0.01 z m 201.89818,0.0469 -15.30183,0.056 15.00183,-0.39187 15.00182,-0.39184 0,-30.5283 0,-30.5283 -15.00182,-0.39186 -15.00183,-0.39187 15.30183,0.056 15.30182,0.056 0,31.2 0,31.2 -15.30182,0.056 z m 52.17183,0.26396 -31.53,0.31998 -0.58437,-1.52284 c -0.32141,-0.83757 -0.44291,-22.58157 -0.27,-48.31998 l 0.31436,-46.79709 15.30182,-0.056 15.30183,-0.056 -15.00183,0.39187 -15.00182,0.39186 0,47.36416 0,47.36414 31.16414,0 31.16416,0 0.39186,-15.00182 0.39187,-15.00182 -0.056,15.30182 -0.056,15.30187 -31.52999,0.31998 z m 133.52999,-0.30432 -66,0.0156 65.7,-0.32589 65.7,-0.32591 0,-131.37016 0,-131.37014 -32.1,-0.35013 -32.1,-0.35013 32.4,0.0305 32.4,0.0305 0,132 0,132 -66,0.0157 z m 99.90395,-147.01561 -0.31348,148.2 -0.29523,-149.0804 -0.29524,-149.0804 -32.1,-0.34005 -32.1,-0.34004 32.13766,-0.27956 32.13766,-0.27955 0.57106,1.5 c 0.31408,0.825 0.42998,68.19 0.25757,149.7 z m 19.17308,147.33828 -14.12298,0.33828 -0.58573,-1.53828 c -0.32215,-0.84605 -0.44468,-68.49828 -0.27228,-150.33828 l 0.31345,-148.8 0.29526,149.7 0.29525,149.7 13.8,0 13.8,0 0,-165 0,-165 -81,0 -81,0 0,47.36415 0,47.36415 15.00182,0.39186 15.00183,0.39187 -15.30183,-0.056 -15.30182,-0.056 0,-48 0,-48 81.6,0 81.6,0 0,165.6 0,165.6 -14.12297,0.33828 z m 33.6,0 -14.12298,0.33828 -0.58548,-1.53828 c -0.32202,-0.84605 -0.44475,-76.05828 -0.27275,-167.13828 l 0.31272,-165.6 0.29573,166.5 0.29573,166.5 13.8,0 13.8,0 0,-181.8 0,-181.8 -384,0 -384,0 0,47.38654 0,47.38654 48.60024,0.3339 48.60023,0.33391 -48.90023,-0.0204 -48.90024,-0.0204 0,-48 0,-48 384.6,0 384.6,0 0,182.4 0,182.4 -14.12297,0.33828 z m -50.3907,-55.53828 -0.31141,54 -0.28746,-147.75307 -0.28746,-147.75306 -1.59805,-1.32627 -1.59805,-1.32626 -31.10195,-0.32308 -31.10195,-0.32307 33.6,-0.5976 33.6,-0.59759 -0.30113,96 c -0.16562,52.8 -0.44126,120.3 -0.61254,150 z m -301.36133,25.47501 -0.725,0.72499 0.0948,-2.29999 0.0947,-2.30001 0.63026,1.575 0.63027,1.575 -0.72499,0.72501 z m -17.525,-1.33744 -15,0 7.5,-0.42605 c 4.125,-0.23432 10.875,-0.23432 15,0 l 7.5,0.42605 -15,0 z m 83.3,0.36769 -2.3,-0.0947 1.575,-0.63026 1.575,-0.63027 0.725,0.725 0.725,0.725 -2.3,-0.0948 z m 168,0 -2.3,-0.0947 1.575,-0.63026 1.575,-0.63027 0.725,0.725 0.725,0.725 -2.3,-0.0948 z m -334.40674,-49.98569 -0.33364,48.28043 0.0202,-48.6 0.0202,-48.6 31.8,-0.0294 31.8,-0.0294 -31.48656,0.34897 -31.48655,0.34898 -0.33363,48.28042 z m 303.5954,41.43293 -0.4186,8.0475 0.004,-16.8 0.004,-16.8 0.4152,8.7525 c 0.22836,4.81387 0.22683,12.37387 -0.004,16.8 z m -474.88866,5.65791 -99,0.0108 98.7,-0.31733 98.7,-0.31734 0,-30.58613 0,-30.58613 -99.00006,-0.3174 -99.00006,-0.3174 99.30006,0.0108 99.30006,0.0108 0,31.2 0,31.2 -99,0.0108 z m 135.27013,0.30991 -30.92985,0.32033 -0.58451,-1.5232 c -0.32148,-0.83776 -0.44304,-22.5819 -0.27013,-48.32032 l 0.31436,-46.79713 14.4,0 14.4,0 0.0311,31.8 0.0311,31.8 -0.35098,-31.5 -0.35098,-31.5 -13.78007,0 -13.78008,0 0,47.4 0,47.4 30.58653,0 30.58655,0 0.33415,-48.9 0.33416,-48.9 -0.0206,49.2 -0.0206,49.2 -30.92987,0.32032 z m 119.39221,0.0176 -15.93766,0.26204 -0.60242,-1.56986 c -0.33132,-0.86343 -0.4305,-8.01843 -0.22038,-15.9 l 0.38204,-14.33014 0.25804,15.26517 0.25804,15.26517 15.9,0.37278 15.9,0.37279 -15.93766,0.26205 z m 81.02752,-7.23796 -0.4198,8.1 0,-16.2 0,-16.2 0.4198,8.1 c 0.23089,4.455 0.23089,11.745 0,16.2 z m 4.78927,-6.89805 -0.39474,14.40194 0.0578,-14.70194 0.0578,-14.70195 64.8,0 64.8,0 0,14.4 0,14.4 -48.90024,0.0204 -48.90023,0.0204 48.60023,-0.3339 48.60024,-0.33381 0,-13.78655 0,-13.78654 -64.16306,0 -64.16307,0 -0.39474,14.40195 z m 163.22302,-66.00195 -0.31932,81 -0.29142,-81.86414 -0.29141,-81.86416 -15.3,-0.37505 -15.3,-0.37506 15.33766,-0.26079 15.33766,-0.2608 0.57309,1.5 c 0.31519,0.825 0.42937,37.95 0.25374,82.5 z m 4.79749,30.9 -0.3267,50.1 0,-100.2 0,-100.2 0.3267,50.1 c 0.17968,27.555 0.17968,72.645 0,100.2 z m -2.69964,48.3 c -0.33,0 -0.6,-36.38388 -0.6,-80.85307 l 0,-80.85306 -1.57472,-1.30691 -1.57472,-1.30689 -14.32528,-0.382 -14.32528,-0.38198 14.55307,-0.25805 14.55306,-0.25804 1.30691,-1.57472 1.3069,-1.57471 0.38199,-14.32529 c 0.2101,-7.8789 0.49811,30.08972 0.64003,84.37472 0.14193,54.285 -0.012,98.7 -0.34196,98.7 z m -436.675,-29.12499 -0.725,0.72499 0.0947,-2.29999 0.0947,-2.30001 0.63026,1.575 0.63027,1.575 -0.72499,0.72501 z m 199.2,0 -0.725,0.72499 0.0948,-2.29999 0.0947,-2.30001 0.63026,1.575 0.63027,1.575 -0.72499,0.72501 z m -133.425,-0.96975 -2.3,-0.0947 1.575,-0.63026 1.575,-0.63027 0.725,0.725 0.725,0.725 -2.3,-0.0948 z m 100.8,-1.2 -2.3,-0.0947 1.575,-0.63026 1.575,-0.63027 0.725,0.725 0.725,0.725 -2.3,-0.0948 z m -267.23766,-1.39823 -99.33766,0.29297 -0.57235,-1.5 c -0.31479,-0.825 -0.43284,-45.24 -0.26234,-98.7 l 0.31001,-97.2 48.6,-0.0202 48.6,-0.0202 -48.3,0.33365 -48.3,0.33366 0,97.7796 0,97.7796 99.3,0.31397 99.3,0.31395 -99.33766,0.29298 z m 169.23083,-47.98746 -0.33401,47.68043 0.0204,-48 0.0204,-48 31.8,-0.0294 31.8,-0.0294 -31.4864,0.34897 -31.4864,0.34898 -0.33402,47.68042 z m 147.60501,47.73645 -15.30183,0.056 14.96625,-0.39161 14.96623,-0.3916 0.39159,-14.96623 0.39161,-14.96624 -0.056,15.30182 -0.056,15.3018 -15.30182,0.056 z m 68.4,0 -15.30183,0.056 15.00183,-0.39187 15.00182,-0.39186 0,-64.12932 0,-64.12932 -15.60172,-0.38916 -15.6017,-0.38916 15.9017,0.0544 15.90172,0.0544 0,64.8 0,64.8 -15.30182,0.056 z m 69.56416,0.25782 -48.93766,0.28616 -0.57231,-1.5 c -0.31476,-0.825 -0.42961,-45.78 -0.25521,-99.9 l 0.31706,-98.4 0.2929,99.28654 0.29288,99.28655 48.9,0.3273 48.9,0.3273 -48.93766,0.28615 z m 15.33766,-29.04137 -33.6,-10e-4 17.1726,-0.36909 c 9.44494,-0.20299 24.56494,-0.2025 33.6,0.001 l 16.4274,0.37017 -33.6,-10e-4 z m -540.90062,-36.45767 -0.33828,33.9852 -3.2e-4,-67.2 -3.3e-4,-67.2 0.33861,33.2148 c 0.18623,18.26814 0.18638,48.50814 3.2e-4,67.2 z m 375.5802,18.42261 -0.39161,14.96624 0.056,-15.30182 0.056,-15.30183 15.30182,-0.056 15.30183,-0.056 -14.96625,0.39161 -14.96623,0.3916 -0.39159,14.96623 z m 64.22042,14.96259 -0.9,0 0,-33 0,-33 0.9,0 0.9,0 0,33 0,33 -0.9,0 z m 2.9966,-15.8274 -0.37017,16.4274 0.001,-33.6 10e-4,-33.6 0.36909,17.1726 c 0.20299,9.44494 0.2025,24.56494 -0.001,33.6 z m 62.40624,-81.9726 -0.31706,98.4 -0.2929,-99.3 -0.29288,-99.3 -64.2,0 -64.2,0 0,80.96415 0,80.96415 15.3,0.39409 15.3,0.3941 -15.6,-0.0582 -15.6,-0.0582 0,-81.6 0,-81.6 64.53366,-0.31045 64.53365,-0.31044 0.57631,1.51044 c 0.31697,0.83066 0.43362,45.79036 0.25922,99.91036 z m 71.99376,81.9726 -0.37017,16.4274 0.001,-33.6 10e-4,-33.6 0.36909,17.1726 c 0.20299,9.44494 0.2025,24.56494 -0.001,33.6 z m -474.03157,14.33442 -98.13497,0.30702 -0.5866,-1.52865 c -0.32263,-0.84077 -0.4419,-15.01894 -0.26503,-31.50704 l 0.32157,-29.97835 15.30182,-0.056 15.30182,-0.056 -15.00182,0.39187 -15.00182,0.39186 0,30.56416 0,30.56414 97.76414,0 97.76416,0 0.39186,-15.00182 0.39187,-15.00183 -0.056,15.30183 -0.056,15.30182 -98.13497,0.30702 z m 234.63448,-0.27755 -32.70049,0.0295 32.40049,-0.34876 32.40049,-0.34876 0,-97.77056 0,-97.77055 -66.3,-0.32568 -66.3,-0.32568 66.6,0.0155 66.6,0.0155 0,98.4 0,98.4 -32.70049,0.0295 z m 83.99877,0.0248 -15.9017,0.0544 15.6017,-0.38916 15.60172,-0.38916 0,-30.52932 0,-30.52932 -15.00182,-0.39186 -15.00183,-0.39187 15.30183,0.056 15.30182,0.056 0,31.2 0,31.2 -15.90172,0.0544 z m 119.37185,0.26598 -30.92985,0.32033 -0.58011,-1.52033 c -0.31904,-0.83614 -0.43741,-45.80029 -0.26301,-99.92029 l 0.31706,-98.4 0.2929,99.3 0.29288,99.3 30.6,0 30.6,0 0,-30.6 0,-30.6 -13.76306,0 -13.76307,0 -0.39231,14.1 -0.39232,14.1 0.0554,-14.4 0.0554,-14.4 14.4,0 14.4,0 0,31.2 0,31.2 -30.92987,0.32032 z m -438.27013,-29.08106 -67.2,-3.2e-4 33.9852,-0.33828 c 18.69186,-0.18606 48.93186,-0.18592 67.2,3.1e-4 l 33.2148,0.3386 -67.2,-3.1e-4 z m -68.275,-0.96422 -0.725,0.72499 0.0947,-2.29999 0.0947,-2.30001 0.63026,1.575 0.63027,1.575 -0.725,0.72501 z m 373.2,0 -0.725,0.72499 0.0948,-2.29999 0.0947,-2.30001 0.63026,1.575 0.63027,1.575 -0.72499,0.72501 z m 132.975,-0.96975 -2.3,-0.0947 1.575,-0.63026 1.575,-0.63027 0.725,0.725 0.725,0.725 -2.3,-0.0947 z m -368.02042,-16.06785 -0.39161,14.96624 0.056,-15.30182 0.056,-15.30183 15.30182,-0.056 15.30183,-0.056 -14.96625,0.39161 -14.96623,0.3916 -0.39159,14.96623 z m 168.0198,-18.42261 -0.33828,33.9852 -3.3e-4,-67.2 -3.1e-4,-67.2 0.3386,33.2148 c 0.18623,18.26814 0.18638,48.50814 3.2e-4,67.2 z m -289.2012,31.64122 -15.30182,0.056 15.00182,-0.39187 15.00182,-0.39186 0,-30.5283 0,-30.5283 -15.00182,-0.39186 -15.00182,-0.39187 15.30182,0.056 15.30182,0.056 0,31.2 0,31.2 -15.30182,0.056 z m 68.36946,0.25778 -47.73237,0.3138 -0.58921,-1.53545 c -0.32406,-0.84448 -0.4445,-15.0257 -0.26763,-31.5138 l 0.32157,-29.97835 48.6,-0.0202 48.6,-0.0202 -48.3,0.33365 -48.3,0.33365 0,30.58655 0,30.58653 47.4,0 47.4,0 0,-13.7804 0,-13.78039 -32.1,-0.35014 -32.1,-0.35012 32.4,0.0305 32.4,0.0305 0,14.4 0,14.4 -47.73236,0.3138 z m 99.63054,-0.25778 -15.30183,0.056 14.9884,-0.39177 14.98839,-0.39177 0.33412,-48.86424 0.33413,-48.86425 -0.0206,49.2 -0.0206,49.2 -15.30183,0.056 z m 83.70182,-0.0254 -32.4,0.0305 32.1,-0.35013 32.1,-0.35013 0,-30.5608 0,-30.56079 -31.5,-0.34901 -31.5,-0.349 31.8,0.0294 31.8,0.0294 0,31.2 0,31.2 -32.4,0.0305 z m 235.50283,-96.63058 -0.31713,97.8 -0.29285,-98.7 -0.29285,-98.7 -165.59173,0 -165.59173,0 -0.32068,81.9 -0.32068,81.9 0.0124,-82.2 0.0124,-82.2 165.93604,-0.30423 165.93605,-0.30422 0.57393,1.50422 c 0.31577,0.82733 0.43133,45.51423 0.25691,99.30423 z m -501.77783,66.87507 -0.725,0.72499 0.0947,-2.29999 0.0947,-2.30001 0.63026,1.575 0.63027,1.575 -0.725,0.72501 z m 64.8,0 -0.725,0.72499 0.0948,-2.29999 0.0947,-2.30001 0.63026,1.575 0.63027,1.575 -0.72499,0.72501 z m 204,0 -0.725,0.72499 0.0948,-2.29999 0.0947,-2.30001 0.63026,1.575 0.63027,1.575 -0.72499,0.72501 z m 115.075,-0.86529 -15.6,0.59028 0,-34.8 0,-34.8 16.8,0.59147 16.8,0.59148 -14.32528,0.34855 -14.32528,0.34857 -1.57472,1.30689 -1.57472,1.30691 0,30.30613 0,30.30613 1.57124,1.30402 1.57125,1.30402 13.12875,0.35264 13.12876,0.35264 -15.6,0.59027 z m -16.5034,-17.03712 -0.37017,16.4274 10e-4,-33.6 0.001,-33.6 0.36909,17.1726 c 0.20299,9.44494 0.2025,24.56494 -10e-4,33.6 z m -384.03426,14.36661 -15.33766,0.26079 -0.58391,-1.52165 c -0.32115,-0.8369 -0.43921,-15.0119 -0.26234,-31.5 l 0.32157,-29.97835 48.6,-0.0202 48.6,-0.0202 -48.3,0.33365 -48.3,0.33365 0,30.55069 0,30.55069 15.3,0.37505 15.3,0.37506 -15.33766,0.2608 z m 132.33766,-0.31901 -48.6,0.0202 48.3,-0.33365 48.3,-0.33365 0,-30.55069 0,-30.55069 -14.7,-0.38961 -14.7,-0.38961 15,0.0538 15,0.0538 0,31.2 0,31.2 -48.6,0.0202 z m 119.66234,0.30025 -32.13766,0.27955 -0.58391,-1.52165 c -0.32116,-0.8369 -0.4392,-15.0119 -0.26235,-31.5 l 0.32158,-29.97835 31.8,-0.0294 31.8,-0.0294 -31.5,0.349 -31.5,0.34901 0,30.56079 0,30.5608 32.1,0.34005 32.1,0.34005 -32.13766,0.27955 z m 151.8,0.02 -14.73766,0.25946 -0.58391,-1.52164 c -0.32116,-0.83691 -0.4392,-15.01191 -0.26235,-31.5 l 0.32158,-29.97831 15.30182,-0.056 15.30183,-0.056 -15.00183,0.39187 -15.00182,0.39186 0,30.52722 0,30.52721 14.7,0.37747 14.7,0.37748 -14.73766,0.25946 z m 135,-0.001 -15.33766,0.2608 -0.58391,-1.52165 c -0.32116,-0.83691 -0.4392,-15.01191 -0.26235,-31.5 l 0.32158,-29.97844 15.30182,-0.056 15.30183,-0.056 -15.00183,0.39187 -15.00182,0.39191 0,30.5283 0,30.5283 15.3,0.37505 15.3,0.37506 -15.33766,0.2608 z m -524.53734,-30.06444 -0.725,0.72499 0.0947,-2.29999 0.0947,-2.30001 0.63026,1.575 0.63027,1.575 -0.725,0.72501 z m 136.8,0 -0.725,0.72499 0.0947,-2.29999 0.0947,-2.30001 0.63026,1.575 0.63027,1.575 -0.72499,0.72501 z m 98.4,0 -0.725,0.72499 0.0947,-2.29999 0.0947,-2.30001 0.63026,1.575 0.63027,1.575 -0.72499,0.72501 z m 168,0 -0.725,0.72499 0.0948,-2.29999 0.0947,-2.30001 0.63026,1.575 0.63027,1.575 -0.72499,0.72501 z m 135.6,0 -0.725,0.72499 0.0948,-2.29999 0.0947,-2.30001 0.63026,1.575 0.63027,1.575 -0.72499,0.72501 z m -118.325,-1.33744 -15,0 7.5,-0.42605 c 4.125,-0.23432 10.875,-0.23432 15,0 l 7.5,0.42605 -15,0 z m -369.6,-2.51737 -48.6,0.0202 48.3,-0.33365 48.3,-0.33362 0,-64.17309 0,-64.17308 -48.9,-0.33415 -48.9,-0.33416 49.2,0.0207 49.2,0.0207 0,64.8 0,64.8 -48.6,0.0202 z m 69.26234,0.31901 -15.33766,0.26079 -0.58391,-1.52165 c -0.32116,-0.8369 -0.4392,-15.0119 -0.26235,-31.5 l 0.32158,-29.97835 15.30182,-0.056 15.30183,-0.056 -15.00183,0.39187 -15.00182,0.39187 0,30.52829 0,30.5283 15.3,0.37505 15.3,0.37506 -15.33766,0.2608 z m 148.53766,-0.30868 -32.4,0.0305 32.1,-0.35012 32.1,-0.35014 0,-30.56694 0,-30.56693 -48.3,-0.33366 -48.3,-0.33365 48.6,0.0202 48.6,0.0202 0,31.2 0,31.20001 -32.4,0.0305 z m 152.09828,0.0238 -15.9017,0.0544 15.6017,-0.38916 15.60172,-0.38916 0,-30.54588 0,-30.54589 -32.40049,-0.34876 -32.40049,-0.34876 32.70049,0.0295 32.70049,0.0295 0,31.2 0,31.2 -15.90172,0.0544 z m 134.9999,0.001 -15.30183,0.056 14.96625,-0.39161 14.96623,-0.39159 0.39159,-14.96624 0.39161,-14.96624 -0.056,15.30182 -0.056,15.30233 -15.30182,0.056 z m -421.37318,-29.78048 -0.725,0.72499 0.0947,-2.29999 0.0947,-2.30001 0.63026,1.575 0.63027,1.575 -0.72499,0.72501 z m 136.8,0 -0.725,0.72499 0.0948,-2.29999 0.0947,-2.30001 0.63026,1.575 0.63027,1.575 -0.72499,0.72501 z m 135.6,0 -0.725,0.72499 0.0948,-2.29999 0.0947,-2.30001 0.63026,1.575 0.63027,1.575 -0.72499,0.72501 z m 134.4,0 -0.725,0.72499 0.0948,-2.29999 0.0947,-2.30001 0.63026,1.575 0.63027,1.575 -0.72499,0.72501 z m -470.2284,-17.90225 -0.37017,16.4274 0.001,-33.6 0.001,-33.6 0.36908,17.1726 c 0.20299,9.44494 0.2025,24.56493 -0.001,33.6 z m 502.4034,15.73266 -2.3,-0.0947 1.575,-0.63026 1.575,-0.63027 0.725,0.725 0.725,0.725 -2.3,-0.0948 z m -556.1,-1.68506 -48.6,0.0202 48.3,-0.33365 48.3,-0.33365 0,-30.57308 0,-30.57308 -48.9,-0.33416 -48.9,-0.33415 49.2,0.0207 49.2,0.0207 0,31.2 0,31.2 -48.6,0.0202 z m 134.09818,0.0358 -15.30183,0.056 15.00183,-0.39187 15.00182,-0.39183 0,-30.5283 0,-30.52829 -15.00182,-0.39187 -15.00183,-0.39187 15.30183,0.056 15.30182,0.056 0,31.2 0,31.2 -15.30182,0.056 z m 84.90182,0.0164 -33.6,-0.001 17.1726,-0.36909 c 9.44494,-0.20299 24.56494,-0.2025 33.6,0.001 l 16.4274,0.37018 -33.6,-0.001 z m 152.4,0.0541 -16.8,0.004 8.0475,-0.4186 c 4.42613,-0.23023 11.98613,-0.23177 16.8,-0.004 l 8.7525,0.4152 -16.8,0.004 z m -352.675,-29.85152 -0.725,0.725 0.0947,-2.3 0.0947,-2.3 0.63026,1.575 0.63027,1.575 -0.725,0.725 z m 100.8,0 -0.725,0.725 0.0947,-2.3 0.0947,-2.3 0.63026,1.575 0.63027,1.575 -0.72499,0.725 z m 64.8,0 -0.725,0.725 0.0947,-2.3 0.0947,-2.3 0.63026,1.575 0.63027,1.575 -0.72499,0.725 z m 168,0 -0.725,0.725 0.0948,-2.3 0.0947,-2.3 0.63026,1.575 0.63027,1.575 -0.72499,0.725 z m 34.075,-1.39909 -31.8,0 15.9,-0.37278 c 8.745,-0.20504 23.055,-0.20504 31.8,0 l 15.9,0.37278 -31.8,0 z m 134.08866,-8.12341 -0.4186,8.0475 0.004,-16.8 0.004,-16.8 0.4152,8.7525 c 0.22836,4.81388 0.22683,12.37388 -0.004,16.8 z m -417.62632,5.9867 -15.33766,0.2608 -0.58391,-1.52164 c -0.32116,-0.83691 -0.4392,-15.01191 -0.26235,-31.5 l 0.32158,-29.97836 15.30182,-0.056 15.30183,-0.056 -15.00183,0.39187 -15.00182,0.39187 0,30.52829 0,30.5283 15.3,0.37505 15.3,0.37505 -15.33766,0.2608 z m 132.93766,-0.28831 -50.4,-5.4e-4 25.58078,-0.34928 c 14.06943,-0.1921 36.74943,-0.19185 50.4,5.5e-4 l 24.81922,0.34981 -50.4,-5.4e-4 z m 151.2,0.0216 -33.6,-0.001 17.1726,-0.36908 c 9.44494,-0.20299 24.56494,-0.20249 33.6,10e-4 l 16.4274,0.37018 -33.6,-0.001 z m 170.66234,0.24797 -32.13766,0.27955 -0.60242,-1.56986 c -0.33132,-0.86342 -0.4305,-8.01842 -0.22038,-15.9 l 0.38204,-14.33014 0.25804,15.2804 0.25804,15.2804 32.1,0.34005 32.1,0.34005 -32.13766,0.27955 z M 35.49015,71.80995 l -0.725,0.725 0.0947,-2.3 0.0947,-2.3 0.63026,1.575 0.63027,1.575 -0.725,0.725 z m 168,0 -0.725,0.725 0.0947,-2.3 0.0947,-2.3 0.63026,1.575 0.63027,1.575 -0.72499,0.725 z m 67.2,0 -0.725,0.725 0.0947,-2.3 0.0947,-2.3 0.63026,1.575 0.63027,1.575 -0.72499,0.725 z m 370.8,0 -0.725,0.725 0.0947,-2.3 0.0947,-2.3 0.63026,1.575 0.63027,1.575 -0.72499,0.725 z m -32.625,-2.16973 -2.3,-0.0947 1.575,-0.63027 1.575,-0.63026 0.725,0.725 0.725,0.725 -2.3,-0.0947 z m -521.9,-1.65438 -50.4,-5.4e-4 25.58078,-0.34927 c 14.06943,-0.19211 36.74943,-0.19186 50.4,5.4e-4 l 24.81922,0.34981 -50.4,-5.4e-4 z m 133.49818,0.005 -15.30183,0.056 14.96625,-0.3916 14.96623,-0.3916 0.39159,-14.96623 0.39161,-14.96624 -0.056,15.30182 -0.056,15.30179 -15.30182,0.056 z m 186.30182,-0.0357 -135,0 67.5,-0.32018 c 37.125,-0.1761 97.875,-0.1761 135,0 l 67.5,0.32018 -135,0 z m 269.4,0.0521 -33.6,-10e-4 17.1726,-0.36907 c 9.44494,-0.20299 24.56494,-0.2025 33.6,0.001 l 16.4274,0.37017 -33.6,-0.001 z m -607.075,-29.79751 -0.725,0.725 0.0947,-2.3 0.0947,-2.3 0.63027,1.575 0.63026,1.575 -0.725,0.725 z m 136.8,0 -0.725,0.725 0.0947,-2.3 0.0947,-2.3 0.63026,1.575 0.63027,1.575 -0.72499,0.725 z m -68.525,-3.83577 -67.2,-3.2e-4 33.9852,-0.33829 c 18.69186,-0.18606 48.93186,-0.18591 67.2,3.2e-4 l 33.2148,0.33861 -67.2,-3.2e-4 z m 353.4,-0.0281 -252.6,0 126.3,-0.31107 c 69.465,-0.17109 183.135,-0.17109 252.6,0 l 126.3,0.31107 -252.6,0 z M 0.8651,457.13144 0.5558,607.93495 l 2e-5,-302.4 2e-5,-302.39999 0.30928,151.59648 c 0.1701,83.37808 0.17009,219.45808 -2e-5,302.4 z m 778.80001,-0.0965 -0.30931,150.9 0,-301.8 0,-301.79999 0.30931,150.89999 c 0.17012,82.995 0.17012,218.805 0,301.8 z M 389.36515,0.74228 l -386.4,-1e-5 193.59725,-0.3073 c 106.47848,-0.16902 280.35848,-0.16902 386.4,10e-6 l 192.80275,0.30731 -386.4,-10e-6 z"
		id="mazeLines" />
	<g id="panda" transform="matrix(0.85331295,0,0,0.75031895,0.31386423,0.86756004)">
		<path sodipodi:type="arc"
			style="fill:#000000;fill-opacity:1;stroke:#e40000;stroke-opacity:0.85271319"
			id="path7058" sodipodi:cx="129.7234" sodipodi:cy="90.184395"
			sodipodi:rx="49.695034" sodipodi:ry="47.758865"
			d="M 131.13629,137.92395 C 103.70157,138.67387 80.828773,117.90806 80.048459,91.542232 79.268144,65.176401 100.87581,43.194748 128.31052,42.444836 c 22.12156,-0.604681 41.99353,12.921721 48.74143,33.177204"
			sodipodi:start="1.5423614" sodipodi:end="5.973337" sodipodi:open="true"
			transform="matrix(0,0.07609203,-0.09104005,0,46.843,1.452792)" />
		<path sodipodi:type="arc"
			style="fill:#000000;fill-opacity:1;stroke:#e40000;stroke-opacity:0.85271319"
			id="path7054" sodipodi:cx="129.7234" sodipodi:cy="90.184395"
			sodipodi:rx="49.695034" sodipodi:ry="47.758865"
			d="M 131.13629,137.92395 C 103.70157,138.67387 80.828773,117.90806 80.048459,91.542232 79.268144,65.176401 100.87581,43.194748 128.31052,42.444836 c 22.12156,-0.604681 41.99353,12.921721 48.74143,33.177204"
			sodipodi:start="1.5423614" sodipodi:end="5.973337" sodipodi:open="true"
			transform="matrix(0.09104005,0,0,0.07609203,1.73367,7.317889)" />
		<path sodipodi:type="arc"
			style="fill:#ffffff;fill-opacity:1;stroke:#000000;stroke-opacity:1"
			id="path2312" sodipodi:cx="304.62411" sodipodi:cy="194.73758"
			sodipodi:rx="95.517731" sodipodi:ry="89.063828"
			d="m 400.14185,194.73758 c 0,49.18859 -42.76475,89.06383 -95.51774,89.06383 -52.75298,0 -95.51773,-39.87524 -95.51773,-89.06383 0,-49.18859 42.76475,-89.06383 95.51773,-89.06383 52.75299,0 95.51774,39.87524 95.51774,89.06383 z"
			transform="matrix(0.15410253,0,0,0.11828343,-19.0631,-2.224306)" />
		<path sodipodi:type="arc"
			style="fill:#ffffff;fill-opacity:1;stroke:#000000;stroke-opacity:1"
			id="path4304" sodipodi:cx="304.62411" sodipodi:cy="194.73758"
			sodipodi:rx="95.517731" sodipodi:ry="89.063828"
			d="m 400.14185,194.73758 c 0,49.18859 -42.76475,89.06383 -95.51774,89.06383 -52.75298,0 -95.51773,-39.87524 -95.51773,-89.06383 0,-49.18859 42.76475,-89.06383 95.51773,-89.06383 52.75299,0 95.51774,39.87524 95.51774,89.06383 z"
			transform="matrix(0.05246881,0,0,0.05034003,5.31626,8.944247)" />
		<path sodipodi:type="arc"
			style="fill:#ffffff;fill-opacity:1;stroke:#000000;stroke-opacity:1"
			id="path4312" sodipodi:cx="304.62411" sodipodi:cy="194.73758"
			sodipodi:rx="95.517731" sodipodi:ry="89.063828"
			d="m 400.14185,194.73758 c 0,49.18859 -42.76475,89.06383 -95.51774,89.06383 -52.75298,0 -95.51773,-39.87524 -95.51773,-89.06383 0,-49.18859 42.76475,-89.06383 95.51773,-89.06383 52.75299,0 95.51774,39.87524 95.51774,89.06383 z"
			transform="matrix(0.0481845,0,0,0.04705107,19.43026,9.14275)" />
		<path sodipodi:type="arc"
			style="fill:#000000;fill-opacity:1;stroke:#000000;stroke-opacity:1"
			id="path4314" sodipodi:cx="304.62411" sodipodi:cy="194.73758"
			sodipodi:rx="95.517731" sodipodi:ry="89.063828"
			d="m 400.14185,194.73758 c 0,49.18859 -42.76475,89.06383 -95.51774,89.06383 -52.75298,0 -95.51773,-39.87524 -95.51773,-89.06383 0,-49.18859 42.76475,-89.06383 95.51773,-89.06383 52.75299,0 95.51774,39.87524 95.51774,89.06383 z"
			transform="matrix(0.02610795,0,0,0.04876649,13.46393,9.250675)" />
		<path sodipodi:type="arc"
			style="fill:#000000;fill-opacity:1;stroke:#000000;stroke-opacity:1"
			id="path5285" sodipodi:cx="304.62411" sodipodi:cy="194.73758"
			sodipodi:rx="95.517731" sodipodi:ry="89.063828"
			d="m 400.14185,194.73758 c 0,49.18859 -42.76475,89.06383 -95.51774,89.06383 -52.75298,0 -95.51773,-39.87524 -95.51773,-89.06383 0,-49.18859 42.76475,-89.06383 95.51773,-89.06383 52.75299,0 95.51774,39.87524 95.51774,89.06383 z"
			transform="matrix(0.02121013,0,0,0.04713318,27.58854,9.077653)" />
		<path
			style="fill:#ffffff;fill-opacity:1;fill-rule:evenodd;stroke:#000000;stroke-width:0.08323114px;stroke-linecap:butt;stroke-linejoin:miter;stroke-opacity:1"
			d="m 19.83062,15.064167 c 0,0 2.46777,1.178617 1.52767,2.062579 -0.9401,0.883963 -2.46777,0.196436 -2.46777,0.196436"
			id="path2164" />
		<path
			style="fill:#ffffff;fill-opacity:1;fill-rule:evenodd;stroke:#000000;stroke-width:0.0732014px;stroke-linecap:butt;stroke-linejoin:miter;stroke-opacity:1"
			d="m 32.81876,14.58845 c 0,0 2.15341,1.044762 1.33306,1.828335 -0.82035,0.783571 -2.15341,0.174127 -2.15341,0.174127"
			id="path6059" />
		<path sodipodi:type="arc"
			style="fill:#000000;fill-opacity:1;stroke:#e40000;stroke-opacity:0.85271319"
			id="path6061" sodipodi:cx="292.36169" sodipodi:cy="222.48936"
			sodipodi:rx="29.042553" sodipodi:ry="8.3900709"
			d="m 321.40425,222.48936 c 0,4.63371 -13.0028,8.39008 -29.04256,8.39008 -16.03975,0 -29.04255,-3.75637 -29.04255,-8.39008 0,-4.6337 13.0028,-8.39007 29.04255,-8.39007 16.03976,0 29.04256,3.75637 29.04256,8.39007 z"
			transform="matrix(0.112249,-0.02725684,0.03277975,0.09430312,-12.52399,11.431409)" />
		<path
			style="fill:none;stroke:#000000;stroke-width:0.08323114px;stroke-linecap:butt;stroke-linejoin:miter;stroke-opacity:1"
			d="m 27.939,25.278847 c 0,0.398637 0,1.454601 0,2.160798 0,0.889443 -1.65383,1.099533 -1.99772,0.883963"
			id="path7038" />
		<path
			style="fill:none;stroke:#000000;stroke-width:0.08323114px;stroke-linecap:butt;stroke-linejoin:miter;stroke-opacity:1"
			d="m 27.99775,25.387091 c 0,0.398637 0,1.454601 0,2.160798 0,0.889443 1.65383,1.099531 1.99772,0.883964"
			id="path7040" />
		<path sodipodi:type="arc"
			style="fill:#fffffe;fill-opacity:1;stroke:#000000;stroke-opacity:0.85271319"
			id="path7044" sodipodi:cx="64.539009" sodipodi:cy="77.921982"
			sodipodi:rx="29.687943" sodipodi:ry="29.042553"
			d="M 65.38307,106.95279 C 48.9935,107.40882 35.32923,94.780968 34.863068,78.747693 34.396906,62.714418 47.305379,49.347197 63.694948,48.891169 76.910428,48.523458 88.78199,56.748973 92.813207,69.066496"
			sodipodi:start="1.5423614" sodipodi:end="5.973337" sodipodi:open="true"
			transform="matrix(0.09104005,0,0,0.07609203,8.19687,8.594725)" />
		<path sodipodi:type="arc"
			style="fill:#ffffff;fill-opacity:1;stroke:#000000;stroke-opacity:0.85271319"
			id="path7050" sodipodi:cx="64.539009" sodipodi:cy="77.921982"
			sodipodi:rx="29.687943" sodipodi:ry="29.042553"
			d="M 65.38307,106.95279 C 48.9935,107.40882 35.32923,94.780968 34.863068,78.747693 34.396906,62.714418 47.305379,49.347197 63.694948,48.891169 76.910428,48.523458 88.78199,56.748973 92.813207,69.066496"
			sodipodi:start="1.5423614" sodipodi:end="5.973337" sodipodi:open="true"
			transform="matrix(0,0.07609203,-0.09104005,0,45.30954,6.715458)" />
		<path sodipodi:type="arc"
			style="fill:url(#linearGradient9987);fill-opacity:1;stroke:#000000;stroke-width:15.99551773;stroke-miterlimit:4;stroke-opacity:0.85271319;stroke-dasharray:none"
			id="path8998" sodipodi:cx="342.05673" sodipodi:cy="401.26242"
			sodipodi:rx="45.177307" sodipodi:ry="47.758865"
			d="m 387.23404,401.26242 c 0,26.37649 -20.22657,47.75887 -45.17731,47.75887 -24.95074,0 -45.1773,-21.38238 -45.1773,-47.75887 0,-26.37649 20.22656,-47.75886 45.1773,-47.75886 24.95074,0 45.17731,21.38237 45.17731,47.75886 z"
			transform="matrix(0.10257785,-0.02610758,0.02381654,0.05542108,-16.90868,22.782121)" />
		<path
			style="fill:none;stroke:#000000;stroke-width:0.29074767px;stroke-linecap:butt;stroke-linejoin:miter;stroke-opacity:1"
			d="m 27.35558,31.319069 0,1.73489" id="path9989"
			inkscape:connector-type="polyline" />
		<path
			style="fill:none;stroke:#000000;stroke-width:0.28594247px;stroke-linecap:butt;stroke-linejoin:miter;stroke-opacity:1"
			d="m 29.02404,31.355299 0,1.678018" id="path11936"
			inkscape:connector-type="polyline" />
		<path sodipodi:type="arc"
			style="fill:none;stroke:#000000;stroke-opacity:0.85271319" id="path11938"
			sodipodi:cx="126.888" sodipodi:cy="365.46017" sodipodi:rx="56.205421"
			sodipodi:ry="14.902953"
			d="m 139.3888,379.98985 c -30.26389,1.8306 -60.394418,-3.19055 -67.298421,-11.21507 -6.904003,-8.02452 12.032928,-16.01367 42.296821,-17.84428 9.59777,-0.58055 19.60228,-0.48251 29.01226,0.2843"
			sodipodi:start="1.3465078" sodipodi:end="5.0105573"
			transform="matrix(0.05404867,0.04807469,-0.0497003,0.05228084,33.99954,8.769732)"
			sodipodi:open="true" />
		<path
			style="fill:none;stroke:#000000;stroke-width:0.08323114px;stroke-linecap:butt;stroke-linejoin:miter;stroke-opacity:1"
			d="m 20.41827,31.254711 c 0,0.02043 0,0.424136 0,0.647997" id="path11942" />
		<path
			style="fill:none;stroke:#000000;stroke-width:0.17471384px;stroke-linecap:butt;stroke-linejoin:miter;stroke-opacity:1"
			d="m 19.97247,31.173711 c 0,0.03129 0,0.4739 0,0.712799" id="path11946" />
		<path
			style="fill:none;stroke:#000000;stroke-width:0.07848793px;stroke-linecap:butt;stroke-linejoin:miter;stroke-opacity:1"
			d="m 20.8156,31.419825 c 0,0.02178 0,0.329741 0,0.495967" id="path11950" />
		<path sodipodi:type="arc"
			style="fill:none;stroke:#000000;stroke-opacity:0.85271319" id="path11952"
			sodipodi:cx="126.888" sodipodi:cy="365.46017" sodipodi:rx="56.205421"
			sodipodi:ry="14.902953"
			d="m 139.3888,379.98985 c -30.26389,1.8306 -60.394418,-3.19055 -67.298421,-11.21507 -6.904003,-8.02452 12.032928,-16.01367 42.296821,-17.84428 9.59777,-0.58055 19.60228,-0.48251 29.01226,0.2843"
			sodipodi:start="1.3465078" sodipodi:end="5.0105573"
			transform="matrix(-0.05404867,0.04807469,0.0497003,0.05228084,21.65631,8.337215)"
			sodipodi:open="true" />
		<path
			style="fill:none;stroke:#000000;stroke-width:0.08323114px;stroke-linecap:butt;stroke-linejoin:miter;stroke-opacity:1"
			d="m 35.23759,30.822193 c 0,0.02043 0,0.424136 0,0.647999" id="path11954" />
		<path
			style="fill:none;stroke:#000000;stroke-width:0.17471384px;stroke-linecap:butt;stroke-linejoin:miter;stroke-opacity:1"
			d="m 35.68338,30.741195 c 0,0.03129 0,0.473898 0,0.712796" id="path11956" />
		<path
			style="fill:none;stroke:#000000;stroke-width:0.07848793px;stroke-linecap:butt;stroke-linejoin:miter;stroke-opacity:1"
			d="m 34.84024,30.987309 c 0,0.02178 0,0.329739 0,0.495968" id="path11958" />
		<path sodipodi:type="arc"
			style="fill:none;stroke:#000000;stroke-width:1.24002588;stroke-linecap:butt;stroke-linejoin:round;stroke-miterlimit:4;stroke-opacity:0.85271319;stroke-dasharray:none"
			id="path13900" sodipodi:cx="60.695839" sodipodi:cy="341.72302"
			sodipodi:rx="11.408993" sodipodi:ry="36.965134"
			d="m 72.104832,341.72302 c 0,20.41528 -5.10798,36.96514 -11.408993,36.96514 -6.301013,0 -11.408993,-16.54986 -11.408993,-36.96514 0,0 0,0 0,0"
			transform="matrix(0.07073764,-1.909522e-4,5.340163e-4,0.04685859,21.63066,25.56615)"
			sodipodi:start="0" sodipodi:end="3.1415927" sodipodi:open="true" />
		<path
			style="fill:none;stroke:#000000;stroke-width:0.06924664px;stroke-linecap:butt;stroke-linejoin:miter;stroke-opacity:1"
			d="m 25.29102,41.619712 0,-2.980902" id="path14875"
			inkscape:connector-type="polyline" />
		<path
			style="fill:none;stroke:#000000;stroke-width:0.06924664px;stroke-linecap:butt;stroke-linejoin:miter;stroke-opacity:1"
			d="m 26.91876,41.608539 -0.0616,-2.916103" id="path14877"
			inkscape:connector-type="polyline" />
		<path sodipodi:type="arc"
			style="fill:none;stroke:#000000;stroke-width:1.24002588;stroke-linecap:butt;stroke-linejoin:round;stroke-miterlimit:4;stroke-opacity:0.85271319;stroke-dasharray:none"
			id="path15848" sodipodi:cx="60.695839" sodipodi:cy="341.72302"
			sodipodi:rx="11.408993" sodipodi:ry="36.965134"
			d="m 72.104832,341.72302 c 0,20.41528 -5.10798,36.96514 -11.408993,36.96514 -6.301013,0 -11.408993,-16.54986 -11.408993,-36.96514 0,0 0,0 0,0"
			transform="matrix(0.07073764,-1.909522e-4,5.340163e-4,0.04685859,23.84952,25.730066)"
			sodipodi:start="0" sodipodi:end="3.1415927" sodipodi:open="true"
			inkscape:transform-center-x="1.992401" inkscape:transform-center-y="1.4626237" />
		<path
			style="fill:none;stroke:#000000;stroke-width:0.06924664px;stroke-linecap:butt;stroke-linejoin:miter;stroke-opacity:1"
			d="m 27.50988,41.78363 0,-2.980903" id="path15850"
			inkscape:connector-type="polyline" inkscape:transform-center-x="2.8081298"
			inkscape:transform-center-y="-0.84031127" />
		<path
			style="fill:none;stroke:#000000;stroke-width:0.06924664px;stroke-linecap:butt;stroke-linejoin:miter;stroke-opacity:1"
			d="m 29.13762,41.772456 -0.0616,-2.916103" id="path15852"
			inkscape:connector-type="polyline" inkscape:transform-center-x="1.2111899"
			inkscape:transform-center-y="-0.81908527" />
	</g>
</svg>
