<?xml version="1.0" encoding="UTF-8" standalone="no"?>
<!-- Created with Inkscape (http://www.inkscape.org/) -->
<svg
   xmlns:dc="http://purl.org/dc/elements/1.1/"
   xmlns:cc="http://creativecommons.org/ns#"
   xmlns:rdf="http://www.w3.org/1999/02/22-rdf-syntax-ns#"
   xmlns:svg="http://www.w3.org/2000/svg"
   xmlns="http://www.w3.org/2000/svg"
   xmlns:sodipodi="http://sodipodi.sourceforge.net/DTD/sodipodi-0.dtd"
   xmlns:inkscape="http://www.inkscape.org/namespaces/inkscape"
   width="800"
   height="600"
   id="svg2"
   sodipodi:version="0.32"
   inkscape:version="0.46"
   version="1.0"
   sodipodi:docname="night.svg"
   inkscape:output_extension="org.inkscape.output.svg.inkscape">
  <defs
     id="defs4">
    <inkscape:perspective
       sodipodi:type="inkscape:persp3d"
       inkscape:vp_x="0 : 526.18109 : 1"
       inkscape:vp_y="0 : 1000 : 0"
       inkscape:vp_z="744.09448 : 526.18109 : 1"
       inkscape:persp3d-origin="372.04724 : 350.78739 : 1"
       id="perspective10" />
  </defs>
  <sodipodi:namedview
     id="base"
     pagecolor="#000000"
     bordercolor="#666666"
     borderopacity="1.0"
     gridtolerance="10000"
     guidetolerance="10"
     objecttolerance="10"
     inkscape:pageopacity="0.88627451"
     inkscape:pageshadow="2"
     inkscape:zoom="0.905"
     inkscape:cx="400"
     inkscape:cy="303.706"
     inkscape:document-units="px"
     inkscape:current-layer="layer1"
     showgrid="false"
     inkscape:window-width="1280"
     inkscape:window-height="750"
     inkscape:window-x="-8"
     inkscape:window-y="-8" />
  <metadata
     id="metadata7">
    <rdf:RDF>
      <cc:Work
         rdf:about="">
        <dc:format>image/svg+xml</dc:format>
        <dc:type
           rdf:resource="http://purl.org/dc/dcmitype/StillImage" />
      </cc:Work>
    </rdf:RDF>
  </metadata>
  <g
     inkscape:label="Layer 1"
     inkscape:groupmode="layer"
     id="layer1">
    <path
       sodipodi:type="star"
       style="fill:#ffff00;fill-rule:evenodd;stroke:#000000;stroke-width:1px;stroke-linecap:butt;stroke-linejoin:miter;stroke-opacity:1"
       id="path2385"
       sodipodi:sides="5"
       sodipodi:cx="375.69061"
       sodipodi:cy="235.35912"
       sodipodi:r1="25.245657"
       sodipodi:r2="12.622828"
       sodipodi:arg1="0.40489179"
       sodipodi:arg2="1.0332103"
       inkscape:flatsided="false"
       inkscape:rounded="0"
       inkscape:randomized="0"
       d="M 398.89503,245.30387 L 382.15431,246.20146 L 373.40315,260.50093 L 367.37632,244.85692 L 351.07246,240.95286 L 364.0884,230.38674 L 362.76322,213.67443 L 376.83434,222.78821 L 392.31919,216.3635 L 387.99969,232.56224 L 398.89503,245.30387 z" />
    <path
       sodipodi:type="star"
       style="fill:#ffff00;fill-rule:evenodd;stroke:#000000;stroke-width:1px;stroke-linecap:butt;stroke-linejoin:miter;stroke-opacity:1"
       id="path2387"
       sodipodi:sides="5"
       sodipodi:cx="549.17127"
       sodipodi:cy="278.45304"
       sodipodi:r1="15.350767"
       sodipodi:r2="7.6753831"
       sodipodi:arg1="1.0427219"
       sodipodi:arg2="1.6710404"
       inkscape:flatsided="false"
       inkscape:rounded="0"
       inkscape:randomized="0"
       d="M 556.90607,291.7127 L 548.40314,286.08988 L 538.95076,289.90673 L 541.67082,280.08242 L 535.11984,272.27214 L 545.30386,271.8232 L 550.70751,263.17933 L 554.28152,272.72618 L 564.17215,275.19426 L 556.19698,281.54348 L 556.90607,291.7127 z" />
    <path
       sodipodi:type="star"
       style="fill:#ffff00;fill-rule:evenodd;stroke:#000000;stroke-width:1px;stroke-linecap:butt;stroke-linejoin:miter;stroke-opacity:1"
       id="path2389"
       sodipodi:sides="5"
       sodipodi:cx="607.73481"
       sodipodi:cy="108.28729"
       sodipodi:r1="10.882716"
       sodipodi:r2="5.4413576"
       sodipodi:arg1="1.152572"
       sodipodi:arg2="1.7808905"
       inkscape:flatsided="false"
       inkscape:rounded="0"
       inkscape:randomized="0"
       d="M 612.15469,118.23204 L 606.6,113.609 L 599.6426,115.56395 L 602.32288,108.85253 L 598.31366,102.83977 L 605.52486,103.31492 L 610.00441,97.643873 L 611.7809,104.64896 L 618.55864,107.15682 L 612.44537,111.01106 L 612.15469,118.23204 z" />
    <path
       sodipodi:type="star"
       style="fill:#ffff00;fill-rule:evenodd;stroke:#000000;stroke-width:1px;stroke-linecap:butt;stroke-linejoin:miter;stroke-opacity:1"
       id="path2391"
       sodipodi:sides="5"
       sodipodi:cx="195.58011"
       sodipodi:cy="143.64641"
       sodipodi:r1="16.574586"
       sodipodi:r2="8.2872922"
       sodipodi:arg1="0.64350111"
       sodipodi:arg2="1.2718196"
       inkscape:flatsided="false"
       inkscape:rounded="0"
       inkscape:randomized="0"
       d="M 208.83978,153.59116 L 198.02107,151.56606 L 190.21955,159.3302 L 188.80237,148.41521 L 179.00743,143.39477 L 188.95027,138.67403 L 190.69819,127.8071 L 198.26039,135.80451 L 209.13559,134.10881 L 203.86645,143.77223 L 208.83978,153.59116 z" />
    <path
       sodipodi:type="star"
       style="fill:#ffff00;fill-rule:evenodd;stroke:#000000;stroke-width:1px;stroke-linecap:butt;stroke-linejoin:miter;stroke-opacity:1"
       id="path2393"
       sodipodi:sides="5"
       sodipodi:cx="222.09945"
       sodipodi:cy="313.81215"
       sodipodi:r1="19.548957"
       sodipodi:r2="9.7744775"
       sodipodi:arg1="0.74541948"
       sodipodi:arg2="1.373738"
       inkscape:flatsided="false"
       inkscape:rounded="0"
       inkscape:randomized="0"
       d="M 236.4641,327.07183 L 224.01316,323.39747 L 213.92768,331.57121 L 213.57465,318.59423 L 202.68438,311.52819 L 214.91714,307.18233 L 218.27206,294.64154 L 226.18534,304.93264 L 239.14907,304.24804 L 231.80699,314.95415 L 236.4641,327.07183 z" />
    <path
       sodipodi:type="star"
       style="fill:#ffff00;fill-rule:evenodd;stroke:#000000;stroke-width:1px;stroke-linecap:butt;stroke-linejoin:miter;stroke-opacity:1"
       id="path2395"
       sodipodi:sides="5"
       sodipodi:cx="345.85635"
       sodipodi:cy="341.43646"
       sodipodi:r1="17.471147"
       sodipodi:r2="8.7355728"
       sodipodi:arg1="0.96525166"
       sodipodi:arg2="1.5935702"
       inkscape:flatsided="false"
       inkscape:rounded="0"
       inkscape:randomized="0"
       d="M 355.80111,355.8011 L 345.65743,350.16977 L 335.26787,355.3334 L 337.48901,343.94601 L 329.36756,335.6606 L 340.88398,334.25414 L 346.2542,323.96985 L 351.1506,334.48799 L 362.59104,336.41736 L 354.10075,344.32439 L 355.80111,355.8011 z" />
    <path
       sodipodi:type="star"
       style="fill:#ffff00;fill-rule:evenodd;stroke:#000000;stroke-width:1px;stroke-linecap:butt;stroke-linejoin:miter;stroke-opacity:1"
       id="path2397"
       sodipodi:sides="5"
       sodipodi:cx="449.72376"
       sodipodi:cy="114.91713"
       sodipodi:r1="11.53625"
       sodipodi:r2="5.7681248"
       sodipodi:arg1="1.2793395"
       sodipodi:arg2="1.9076581"
       inkscape:flatsided="false"
       inkscape:rounded="0"
       inkscape:randomized="0"
       d="M 453.03867,125.96685 L 447.81723,120.36107 L 440.23921,121.48436 L 443.95712,114.78619 L 440.54707,107.92618 L 448.0663,109.39227 L 453.53679,104.02926 L 454.46603,111.63352 L 461.25703,115.17901 L 454.3121,118.41261 L 453.03867,125.96685 z" />
    <path
       sodipodi:type="star"
       style="fill:#ffff00;fill-rule:evenodd;stroke:#000000;stroke-width:1px;stroke-linecap:butt;stroke-linejoin:miter;stroke-opacity:1"
       id="path2399"
       sodipodi:sides="5"
       sodipodi:cx="617.67956"
       sodipodi:cy="306.07735"
       sodipodi:r1="12.501335"
       sodipodi:r2="6.2506674"
       sodipodi:arg1="0.78539816"
       sodipodi:arg2="1.4137167"
       inkscape:flatsided="false"
       inkscape:rounded="0"
       inkscape:randomized="0"
       d="M 626.51934,314.91714 L 618.65739,312.25107 L 612.00408,317.21613 L 612.11018,308.91511 L 605.33214,304.12172 L 613.25968,301.65747 L 615.72393,293.72994 L 620.51731,300.50798 L 628.81834,300.40187 L 623.85328,307.05518 L 626.51934,314.91714 z" />
    <path
       sodipodi:type="star"
       style="fill:#ffff00;fill-rule:evenodd;stroke:#000000;stroke-width:1px;stroke-linecap:butt;stroke-linejoin:miter;stroke-opacity:1"
       id="path2401"
       sodipodi:sides="5"
       sodipodi:cx="407.73481"
       sodipodi:cy="469.61326"
       sodipodi:r1="11.53625"
       sodipodi:r2="5.768125"
       sodipodi:arg1="0.29145679"
       sodipodi:arg2="0.91977533"
       inkscape:flatsided="false"
       inkscape:rounded="0"
       inkscape:randomized="0"
       d="M 418.78453,472.92817 L 411.23028,474.2016 L 407.99668,481.14653 L 404.45119,474.35552 L 396.84693,473.42629 L 402.20994,467.95579 L 400.74385,460.43656 L 407.60386,463.84661 L 414.30203,460.1287 L 413.17874,467.70673 L 418.78453,472.92817 z" />
    <path
       sodipodi:type="star"
       style="fill:#ffff00;fill-rule:evenodd;stroke:#000000;stroke-width:1px;stroke-linecap:butt;stroke-linejoin:miter;stroke-opacity:1"
       id="path2403"
       sodipodi:sides="5"
       sodipodi:cx="465.19337"
       sodipodi:cy="380.1105"
       sodipodi:r1="12.598623"
       sodipodi:r2="6.2993117"
       sodipodi:arg1="1.3045443"
       sodipodi:arg2="1.9328628"
       inkscape:flatsided="false"
       inkscape:rounded="0"
       inkscape:randomized="0"
       d="M 468.50828,392.2652 L 462.9621,386.00141 L 454.65792,387.01919 L 458.90128,379.80884 L 455.36718,372.22561 L 463.5359,374.03316 L 469.65589,368.32869 L 470.46108,376.65616 L 477.77753,380.71384 L 470.10645,384.05295 L 468.50828,392.2652 z" />
    <path
       sodipodi:type="star"
       style="fill:#ffff00;fill-rule:evenodd;stroke:#000000;stroke-width:1px;stroke-linecap:butt;stroke-linejoin:miter;stroke-opacity:1"
       id="path2405"
       sodipodi:sides="5"
       sodipodi:cx="638.67403"
       sodipodi:cy="437.56906"
       sodipodi:r1="19.58016"
       sodipodi:r2="9.7900806"
       sodipodi:arg1="0.28605144"
       sodipodi:arg2="0.91436997"
       inkscape:flatsided="false"
       inkscape:rounded="0"
       inkscape:randomized="0"
       d="M 657.45854,443.09392 L 644.6488,445.32455 L 639.22429,457.14149 L 633.14441,445.648 L 620.22957,444.14062 L 629.28175,434.80663 L 626.72444,422.05808 L 638.39887,427.78285 L 649.73321,421.41119 L 647.89623,434.28328 L 657.45854,443.09392 z" />
    <path
       sodipodi:type="star"
       style="fill:#ffff00;fill-rule:evenodd;stroke:#000000;stroke-width:1px;stroke-linecap:butt;stroke-linejoin:miter;stroke-opacity:1"
       id="path2407"
       sodipodi:sides="5"
       sodipodi:cx="699.44751"
       sodipodi:cy="205.52486"
       sodipodi:r1="28.171379"
       sodipodi:r2="14.08569"
       sodipodi:arg1="0.72989966"
       sodipodi:arg2="1.3582182"
       inkscape:flatsided="false"
       inkscape:rounded="0"
       inkscape:randomized="0"
       d="M 720.44199,224.30939 L 702.41932,219.29348 L 688.07001,231.29653 L 687.27111,212.60595 L 671.42135,202.6681 L 688.95027,196.13259 L 693.50389,177.98761 L 705.13626,192.63902 L 723.80031,191.36266 L 713.46059,206.95324 L 720.44199,224.30939 z" />
    <path
       sodipodi:type="star"
       style="fill:#ffff00;fill-rule:evenodd;stroke:#000000;stroke-width:1px;stroke-linecap:butt;stroke-linejoin:miter;stroke-opacity:1"
       id="path2409"
       sodipodi:sides="5"
       sodipodi:cx="562.43094"
       sodipodi:cy="188.95028"
       sodipodi:r1="11.049724"
       sodipodi:r2="5.5248621"
       sodipodi:arg1="0.92729522"
       sodipodi:arg2="1.5556137"
       inkscape:flatsided="false"
       inkscape:rounded="0"
       inkscape:randomized="0"
       d="M 569.0608,197.79007 L 562.51485,194.47451 L 556.07257,197.98728 L 557.20304,190.73714 L 551.87143,185.69567 L 559.11605,184.5304 L 562.26321,177.90184 L 565.61017,184.43179 L 572.88683,185.37658 L 567.71074,190.57759 L 569.0608,197.79007 z" />
    <path
       sodipodi:type="star"
       style="fill:#ffff00;fill-rule:evenodd;stroke:#000000;stroke-width:1px;stroke-linecap:butt;stroke-linejoin:miter;stroke-opacity:1"
       id="path2411"
       sodipodi:sides="5"
       sodipodi:cx="61.878453"
       sodipodi:cy="23.20442"
       sodipodi:r1="14.865883"
       sodipodi:r2="7.4329416"
       sodipodi:arg1="0.83798123"
       sodipodi:arg2="1.4662998"
       inkscape:flatsided="false"
       inkscape:rounded="0"
       inkscape:randomized="0"
       d="M 71.823204,34.254144 L 62.653756,30.596816 L 54.442638,36.076993 L 55.087448,26.226154 L 47.338115,20.110384 L 56.906077,17.679558 L 60.327844,8.4196276 L 65.59636,16.768134 L 75.460461,17.160952 L 69.148621,24.751438 L 71.823204,34.254144 z" />
    <path
       sodipodi:type="star"
       style="fill:#ffff00;fill-rule:evenodd;stroke:#000000;stroke-width:1px;stroke-linecap:butt;stroke-linejoin:miter;stroke-opacity:1"
       id="path2413"
       sodipodi:sides="5"
       sodipodi:cx="41.98895"
       sodipodi:cy="167.9558"
       sodipodi:r1="16.426595"
       sodipodi:r2="8.2132978"
       sodipodi:arg1="0.73781506"
       sodipodi:arg2="1.3661336"
       inkscape:flatsided="false"
       inkscape:rounded="0"
       inkscape:randomized="0"
       d="M 54.143645,179.00552 L 43.658194,175.99768 L 35.236045,182.93015 L 34.856489,172.02842 L 25.660728,166.16073 L 35.911601,162.43093 L 38.650458,151.87203 L 45.365401,160.46862 L 56.253869,159.81054 L 50.153059,168.85333 L 54.143645,179.00552 z" />
    <path
       sodipodi:type="star"
       style="fill:#ffff00;fill-rule:evenodd;stroke:#000000;stroke-width:1px;stroke-linecap:butt;stroke-linejoin:miter;stroke-opacity:1"
       id="path2415"
       sodipodi:sides="5"
       sodipodi:cx="218.78453"
       sodipodi:cy="55.248619"
       sodipodi:r1="7.7348066"
       sodipodi:r2="3.8674035"
       sodipodi:arg1="1.5707963"
       sodipodi:arg2="2.1991149"
       inkscape:flatsided="false"
       inkscape:rounded="0"
       inkscape:randomized="0"
       d="M 218.78453,62.983426 L 216.51133,58.377414 L 211.42829,57.638806 L 215.10641,54.053526 L 214.23813,48.991029 L 218.78453,51.381216 L 223.33094,48.991029 L 222.46265,54.053526 L 226.14077,57.638806 L 221.05773,58.377414 L 218.78453,62.983426 z" />
    <path
       sodipodi:type="star"
       style="fill:#ffff00;fill-rule:evenodd;stroke:#000000;stroke-width:1px;stroke-linecap:butt;stroke-linejoin:miter;stroke-opacity:1"
       id="path2417"
       sodipodi:sides="5"
       sodipodi:cx="308.28729"
       sodipodi:cy="38.674033"
       sodipodi:r1="19.673474"
       sodipodi:r2="9.8367375"
       sodipodi:arg1="0.66596924"
       sodipodi:arg2="1.2942878"
       inkscape:flatsided="false"
       inkscape:rounded="0"
       inkscape:randomized="0"
       d="M 323.75691,50.82873 L 310.97271,48.137118 L 301.50786,57.142518 L 300.1172,44.152269 L 288.62776,37.933489 L 300.55249,32.596685 L 302.91646,19.747868 L 311.67701,29.439791 L 324.62747,27.717566 L 318.11706,39.044307 L 323.75691,50.82873 z" />
    <path
       sodipodi:type="star"
       style="fill:#ffff00;fill-rule:evenodd;stroke:#000000;stroke-width:1px;stroke-linecap:butt;stroke-linejoin:miter;stroke-opacity:1"
       id="path2419"
       sodipodi:sides="5"
       sodipodi:cx="81.767956"
       sodipodi:cy="475.13812"
       sodipodi:r1="14.364641"
       sodipodi:r2="7.1823209"
       sodipodi:arg1="0.39479112"
       sodipodi:arg2="1.0231097"
       inkscape:flatsided="false"
       inkscape:rounded="0"
       inkscape:randomized="0"
       d="M 95.027628,480.66298 L 85.507892,481.2699 L 80.610967,489.45609 L 77.092,480.58983 L 67.79323,478.46225 L 75.138125,472.37569 L 74.288095,462.87458 L 82.346456,467.97914 L 91.119879,464.2347 L 88.755325,473.47606 L 95.027628,480.66298 z" />
    <path
       sodipodi:type="star"
       style="fill:#ffff00;fill-rule:evenodd;stroke:#000000;stroke-width:1px;stroke-linecap:butt;stroke-linejoin:miter;stroke-opacity:1"
       id="path2421"
       sodipodi:sides="5"
       sodipodi:cx="227.62431"
       sodipodi:cy="426.51934"
       sodipodi:r1="13.845264"
       sodipodi:r2="6.9226325"
       sodipodi:arg1="1.0714496"
       sodipodi:arg2="1.6997681"
       inkscape:flatsided="false"
       inkscape:rounded="0"
       inkscape:randomized="0"
       d="M 234.25415,438.67404 L 226.73396,433.38449 L 218.11324,436.5807 L 220.82005,427.79402 L 215.11631,420.58291 L 224.3094,420.442 L 229.40502,412.78907 L 232.37985,421.48867 L 241.23285,423.97001 L 233.87831,429.48757 L 234.25415,438.67404 z" />
    <path
       sodipodi:type="star"
       style="fill:#ffff00;fill-rule:evenodd;stroke:#000000;stroke-width:1px;stroke-linecap:butt;stroke-linejoin:miter;stroke-opacity:1"
       id="path2423"
       sodipodi:sides="5"
       sodipodi:cx="218.78453"
       sodipodi:cy="483.9779"
       sodipodi:r1="6.4430408"
       sodipodi:r2="3.2215206"
       sodipodi:arg1="1.0303768"
       sodipodi:arg2="1.6586954"
       inkscape:flatsided="false"
       inkscape:rounded="0"
       inkscape:randomized="0"
       d="M 222.09945,489.50277 L 218.50173,487.18699 L 214.55444,488.83786 L 215.64512,484.7006 L 212.85527,481.45666 L 217.12707,481.21547 L 219.35014,477.55974 L 220.89958,481.54793 L 225.06335,482.53251 L 221.74916,485.23853 L 222.09945,489.50277 z" />
    <path
       sodipodi:type="star"
       style="fill:#ffff00;fill-rule:evenodd;stroke:#000000;stroke-width:1px;stroke-linecap:butt;stroke-linejoin:miter;stroke-opacity:1"
       id="path2425"
       sodipodi:sides="5"
       sodipodi:cx="57.458564"
       sodipodi:cy="317.12707"
       sodipodi:r1="17.26022"
       sodipodi:r2="8.6301107"
       sodipodi:arg1="0.69473828"
       sodipodi:arg2="1.3230568"
       inkscape:flatsided="false"
       inkscape:rounded="0"
       inkscape:randomized="0"
       d="M 70.718233,328.1768 L 59.574781,325.4937 L 51.047116,333.15232 L 50.155377,321.72515 L 40.236404,315.9815 L 50.82873,311.60221 L 53.226132,300.39382 L 60.664289,309.11445 L 72.064939,307.93093 L 66.069646,317.69986 L 70.718233,328.1768 z" />
    <path
       sodipodi:type="star"
       style="fill:#ffff00;fill-rule:evenodd;stroke:#000000;stroke-width:1px;stroke-linecap:butt;stroke-linejoin:miter;stroke-opacity:1"
       id="path2427"
       sodipodi:sides="5"
       sodipodi:cx="143.64641"
       sodipodi:cy="235.35912"
       sodipodi:r1="10.187342"
       sodipodi:r2="5.0936714"
       sodipodi:arg1="0.86217005"
       sodipodi:arg2="1.4904886"
       inkscape:flatsided="false"
       inkscape:rounded="0"
       inkscape:randomized="0"
       d="M 150.27624,243.09392 L 144.05503,240.43637 L 138.3389,244.05465 L 138.94392,237.3167 L 133.73635,232.99844 L 140.33149,231.49171 L 142.82916,225.20461 L 146.30016,231.01135 L 153.05138,231.44396 L 148.60144,236.53945 L 150.27624,243.09392 z" />
    <path
       sodipodi:type="star"
       style="fill:#ffff00;fill-rule:evenodd;stroke:#000000;stroke-width:1px;stroke-linecap:butt;stroke-linejoin:miter;stroke-opacity:1"
       id="path2429"
       sodipodi:sides="5"
       sodipodi:cx="236.46409"
       sodipodi:cy="208.83978"
       sodipodi:r1="10.424289"
       sodipodi:r2="5.2121447"
       sodipodi:arg1="0.55859932"
       sodipodi:arg2="1.1869178"
       inkscape:flatsided="false"
       inkscape:rounded="0"
       inkscape:randomized="0"
       d="M 245.30388,214.36464 L 238.41615,213.67258 L 233.94128,218.95419 L 232.47105,212.18971 L 226.06513,209.56597 L 232.04421,206.07735 L 232.56,199.17418 L 237.7255,203.78258 L 244.45019,202.13993 L 241.66358,208.47669 L 245.30388,214.36464 z" />
    <path
       sodipodi:type="star"
       style="fill:#ffff00;fill-rule:evenodd;stroke:#000000;stroke-width:1px;stroke-linecap:butt;stroke-linejoin:miter;stroke-opacity:1"
       id="path2431"
       sodipodi:sides="5"
       sodipodi:cx="304.97238"
       sodipodi:cy="131.49171"
       sodipodi:r1="19.548957"
       sodipodi:r2="9.7744789"
       sodipodi:arg1="0.82537685"
       sodipodi:arg2="1.4536954"
       inkscape:flatsided="false"
       inkscape:rounded="0"
       inkscape:randomized="0"
       d="M 318.23205,145.85636 L 306.11437,141.19925 L 295.40826,148.54133 L 296.09286,135.5776 L 285.80176,127.66431 L 298.34255,124.30939 L 302.68841,112.07664 L 309.75444,122.96691 L 322.73143,123.31994 L 314.55769,133.40542 L 318.23205,145.85636 z" />
    <path
       sodipodi:type="star"
       style="fill:#ffff00;fill-rule:evenodd;stroke:#000000;stroke-width:1px;stroke-linecap:butt;stroke-linejoin:miter;stroke-opacity:1"
       id="path2433"
       sodipodi:sides="5"
       sodipodi:cx="470.71823"
       sodipodi:cy="45.303867"
       sodipodi:r1="17.26022"
       sodipodi:r2="8.6301105"
       sodipodi:arg1="0.87605805"
       sodipodi:arg2="1.5043766"
       inkscape:flatsided="false"
       inkscape:rounded="0"
       inkscape:randomized="0"
       d="M 481.76795,58.563535 L 471.29102,53.914949 L 461.52209,59.910241 L 462.70561,48.509592 L 453.98498,41.071435 L 465.19337,38.674033 L 469.57265,28.081706 L 475.3163,38.00068 L 486.74348,38.892419 L 479.08486,47.420084 L 481.76795,58.563535 z" />
    <path
       sodipodi:type="star"
       style="fill:#ffff00;fill-rule:evenodd;stroke:#000000;stroke-width:1px;stroke-linecap:butt;stroke-linejoin:miter;stroke-opacity:1"
       id="path2435"
       sodipodi:sides="5"
       sodipodi:cx="440.88398"
       sodipodi:cy="219.8895"
       sodipodi:r1="16.426595"
       sodipodi:r2="8.2132981"
       sodipodi:arg1="0.73781506"
       sodipodi:arg2="1.3661336"
       inkscape:flatsided="false"
       inkscape:rounded="0"
       inkscape:randomized="0"
       d="M 453.03867,230.93922 L 442.55322,227.93138 L 434.13107,234.86385 L 433.75151,223.96212 L 424.55575,218.09443 L 434.80662,214.36463 L 437.54548,203.80573 L 444.26042,212.40232 L 455.14889,211.74425 L 449.04808,220.78703 L 453.03867,230.93922 z" />
    <path
       sodipodi:type="star"
       style="fill:#ffff00;fill-rule:evenodd;stroke:#000000;stroke-width:1px;stroke-linecap:butt;stroke-linejoin:miter;stroke-opacity:1"
       id="path2437"
       sodipodi:sides="5"
       sodipodi:cx="612.1547"
       sodipodi:cy="35.359116"
       sodipodi:r1="12.886082"
       sodipodi:r2="6.4430413"
       sodipodi:arg1="1.0303768"
       sodipodi:arg2="1.6586954"
       inkscape:flatsided="false"
       inkscape:rounded="0"
       inkscape:randomized="0"
       d="M 618.78456,46.408839 L 611.58912,41.777283 L 603.69454,45.079015 L 605.8759,36.804513 L 600.29621,30.31662 L 608.83981,29.834253 L 613.28594,22.522782 L 616.38481,30.499166 L 624.71237,32.468321 L 618.08398,37.880364 L 618.78456,46.408839 z" />
    <path
       sodipodi:type="star"
       style="fill:#ffff00;fill-rule:evenodd;stroke:#000000;stroke-width:1px;stroke-linecap:butt;stroke-linejoin:miter;stroke-opacity:1"
       id="path2439"
       sodipodi:sides="5"
       sodipodi:cx="723.75691"
       sodipodi:cy="44.198895"
       sodipodi:r1="17.851375"
       sodipodi:r2="8.9256879"
       sodipodi:arg1="1.1902899"
       sodipodi:arg2="1.8186085"
       inkscape:flatsided="false"
       inkscape:rounded="0"
       inkscape:randomized="0"
       d="M 730.38673,60.77348 L 721.56757,52.851915 L 710.04226,55.626071 L 714.85085,44.790654 L 708.65095,34.686692 L 720.44198,35.911601 L 728.13554,26.892854 L 730.61422,38.485307 L 741.569,43.015375 L 731.30987,48.954996 L 730.38673,60.77348 z" />
    <path
       sodipodi:type="star"
       style="fill:#ffff00;fill-rule:evenodd;stroke:#000000;stroke-width:1px;stroke-linecap:butt;stroke-linejoin:miter;stroke-opacity:1"
       id="path2441"
       sodipodi:sides="5"
       sodipodi:cx="529.28177"
       sodipodi:cy="537.01657"
       sodipodi:r1="17.471147"
       sodipodi:r2="8.735574"
       sodipodi:arg1="0.60554466"
       sodipodi:arg2="1.2338632"
       inkscape:flatsided="false"
       inkscape:rounded="0"
       inkscape:randomized="0"
       d="M 543.64644,546.96129 L 532.16973,545.26094 L 524.2627,553.75122 L 522.33333,542.31078 L 511.81518,537.41439 L 522.09948,532.04416 L 523.50594,520.52774 L 531.79135,528.6492 L 543.17874,526.42805 L 538.01511,536.81761 L 543.64644,546.96129 z" />
    <path
       sodipodi:type="star"
       style="fill:#ffff00;fill-rule:evenodd;stroke:#000000;stroke-width:1px;stroke-linecap:butt;stroke-linejoin:miter;stroke-opacity:1"
       id="path2443"
       sodipodi:sides="5"
       sodipodi:cx="657.45856"
       sodipodi:cy="501.65746"
       sodipodi:r1="17.471147"
       sodipodi:r2="8.7355742"
       sodipodi:arg1="0.60554466"
       sodipodi:arg2="1.2338632"
       inkscape:flatsided="false"
       inkscape:rounded="0"
       inkscape:randomized="0"
       d="M 671.8232,511.60222 L 660.34649,509.90187 L 652.43945,518.39215 L 650.51009,506.95171 L 639.99194,502.05532 L 650.27624,496.68509 L 651.6827,485.16867 L 659.96811,493.29013 L 671.3555,491.06898 L 666.19187,501.45855 L 671.8232,511.60222 z" />
    <path
       sodipodi:type="star"
       style="fill:#ffff00;fill-rule:evenodd;stroke:#000000;stroke-width:1px;stroke-linecap:butt;stroke-linejoin:miter;stroke-opacity:1"
       id="path2445"
       sodipodi:sides="5"
       sodipodi:cx="724.86188"
       sodipodi:cy="400"
       sodipodi:r1="21.454683"
       sodipodi:r2="10.727342"
       sodipodi:arg1="0.60228735"
       sodipodi:arg2="1.2306059"
       inkscape:flatsided="false"
       inkscape:rounded="0"
       inkscape:randomized="0"
       d="M 742.54144,412.1547 L 728.44123,410.11257 L 718.76536,420.57027 L 716.35033,406.52913 L 703.41446,400.55843 L 716.0221,393.92265 L 717.70317,379.77486 L 727.91014,389.71487 L 741.88496,386.94175 L 735.58558,399.72079 L 742.54144,412.1547 z" />
    <path
       sodipodi:type="star"
       style="fill:#ffff00;fill-rule:evenodd;stroke:#000000;stroke-width:1px;stroke-linecap:butt;stroke-linejoin:miter;stroke-opacity:1"
       id="path2447"
       sodipodi:sides="5"
       sodipodi:cx="340.33149"
       sodipodi:cy="533.70166"
       sodipodi:r1="15.390484"
       sodipodi:r2="7.6952424"
       sodipodi:arg1="0.36717383"
       sodipodi:arg2="0.99549236"
       inkscape:flatsided="false"
       inkscape:rounded="0"
       inkscape:randomized="0"
       d="M 354.69612,539.22652 L 344.51839,540.15818 L 339.51594,549.07052 L 335.48479,539.67881 L 325.46281,537.67528 L 333.14916,530.93923 L 331.95768,520.78863 L 340.73925,526.01723 L 350.02486,521.74735 L 347.76582,531.71485 L 354.69612,539.22652 z" />
    <path
       sodipodi:type="star"
       style="fill:#ffff00;fill-rule:evenodd;stroke:#000000;stroke-width:1px;stroke-linecap:butt;stroke-linejoin:miter;stroke-opacity:1"
       id="path2449"
       sodipodi:sides="5"
       sodipodi:cx="142.54144"
       sodipodi:cy="576.79558"
       sodipodi:r1="27.624309"
       sodipodi:r2="13.812156"
       sodipodi:arg1="-0.28379411"
       sodipodi:arg2="0.34452442"
       inkscape:flatsided="false"
       inkscape:rounded="0"
       inkscape:randomized="0"
       d="M 169.06078,569.06079 L 155.54194,581.46064 L 158.09261,599.62679 L 142.1221,590.60138 L 125.63325,598.64086 L 129.28177,580.663 L 116.54044,567.46551 L 134.76586,565.37999 L 143.38013,549.18402 L 150.99554,565.87296 L 169.06078,569.06079 z" />
    <path
       sodipodi:type="star"
       style="fill:#ffff00;fill-rule:evenodd;stroke:#000000;stroke-width:1px;stroke-linecap:butt;stroke-linejoin:miter;stroke-opacity:1"
       id="path2451"
       sodipodi:sides="5"
       sodipodi:cx="361.32597"
       sodipodi:cy="412.1547"
       sodipodi:r1="14.150551"
       sodipodi:r2="7.0752761"
       sodipodi:arg1="0.67474094"
       sodipodi:arg2="1.3030595"
       inkscape:flatsided="false"
       inkscape:rounded="0"
       inkscape:randomized="0"
       d="M 372.37568,420.99447 L 363.19772,418.97789 L 356.33338,425.39525 L 355.41512,416.04333 L 347.19065,411.49803 L 355.8011,407.7348 L 357.58244,398.5083 L 363.82225,405.53442 L 373.14764,404.37742 L 368.39361,412.48303 L 372.37568,420.99447 z" />
  </g>
</svg>
