<?xml version="1.0" encoding="UTF-8" standalone="no"?>
<!-- Created with Inkscape (http://www.inkscape.org/) -->

<svg
   xmlns:dc="http://purl.org/dc/elements/1.1/"
   xmlns:cc="http://creativecommons.org/ns#"
   xmlns:rdf="http://www.w3.org/1999/02/22-rdf-syntax-ns#"
   xmlns:svg="http://www.w3.org/2000/svg"
   xmlns="http://www.w3.org/2000/svg"
   xmlns:xlink="http://www.w3.org/1999/xlink"
   xmlns:sodipodi="http://sodipodi.sourceforge.net/DTD/sodipodi-0.dtd"
   xmlns:inkscape="http://www.inkscape.org/namespaces/inkscape"
   id="svg2890"
   version="1.1"
   inkscape:version="0.47pre4 r22446"
   width="777"
   height="610"
   onload="Init()"
   sodipodi:docname="slippery.svg">
  <metadata
     id="metadata2896">
    <rdf:RDF>
      <cc:Work
         rdf:about="">
        <dc:format>image/svg+xml</dc:format>
        <dc:type
           rdf:resource="http://purl.org/dc/dcmitype/StillImage" />
        <dc:title />
      </cc:Work>
    </rdf:RDF>
  </metadata>
  <script
     xlink:href="slippery.js"
     type="text/ecmascript"
     id="script4" />
  <defs
     id="defs2894">
    <inkscape:perspective
       sodipodi:type="inkscape:persp3d"
       inkscape:vp_x="0 : 0.5 : 1"
       inkscape:vp_y="0 : 1000 : 0"
       inkscape:vp_z="1 : 0.5 : 1"
       inkscape:persp3d-origin="0.5 : 0.33333333 : 1"
       id="perspective2898" />
    <inkscape:perspective
       id="perspective3028"
       inkscape:persp3d-origin="0.5 : 0.33333333 : 1"
       inkscape:vp_z="1 : 0.5 : 1"
       inkscape:vp_y="0 : 1000 : 0"
       inkscape:vp_x="0 : 0.5 : 1"
       sodipodi:type="inkscape:persp3d" />
    <linearGradient
       inkscape:collect="always"
       xlink:href="#linearGradient9981"
       id="linearGradient9987"
       x1="347.03079"
       y1="324.96484"
       x2="341.64835"
       y2="348.14709"
       gradientUnits="userSpaceOnUse" />
    <linearGradient
       inkscape:collect="always"
       id="linearGradient9981">
      <stop
         style="stop-color:#ffffff;stop-opacity:1;"
         offset="0"
         id="stop9983" />
      <stop
         style="stop-color:#ffffff;stop-opacity:0;"
         offset="1"
         id="stop9985" />
    </linearGradient>
    <inkscape:perspective
       id="perspective3006"
       inkscape:persp3d-origin="0.5 : 0.33333333 : 1"
       inkscape:vp_z="1 : 0.5 : 1"
       inkscape:vp_y="0 : 1000 : 0"
       inkscape:vp_x="0 : 0.5 : 1"
       sodipodi:type="inkscape:persp3d" />
    <inkscape:perspective
       id="perspective3006-7"
       inkscape:persp3d-origin="0.5 : 0.33333333 : 1"
       inkscape:vp_z="1 : 0.5 : 1"
       inkscape:vp_y="0 : 1000 : 0"
       inkscape:vp_x="0 : 0.5 : 1"
       sodipodi:type="inkscape:persp3d" />
    <inkscape:perspective
       id="perspective3006-6"
       inkscape:persp3d-origin="0.5 : 0.33333333 : 1"
       inkscape:vp_z="1 : 0.5 : 1"
       inkscape:vp_y="0 : 1000 : 0"
       inkscape:vp_x="0 : 0.5 : 1"
       sodipodi:type="inkscape:persp3d" />
  </defs>
  <sodipodi:namedview
     pagecolor="#ffffff"
     bordercolor="#666666"
     borderopacity="1"
     objecttolerance="10"
     gridtolerance="10"
     guidetolerance="10"
     inkscape:pageopacity="0"
     inkscape:pageshadow="2"
     inkscape:window-width="1280"
     inkscape:window-height="750"
     id="namedview2892"
     showgrid="false"
     inkscape:zoom="1"
     inkscape:cx="328.5"
     inkscape:cy="338.87228"
     inkscape:window-x="0"
     inkscape:window-y="0"
     inkscape:window-maximized="1"
     inkscape:current-layer="svg2890"
     inkscape:snap-global="false" />
  <rect
     style="fill:#0000ff;fill-rule:evenodd;stroke:#000000;stroke-width:1.01677358px;stroke-linecap:butt;stroke-linejoin:miter;stroke-opacity:1"
     id="river"
     width="777.98322"
     height="365.98322"
     x="0.50838679"
     y="115.00838" />
     <g id="rock0">
  <path
     sodipodi:type="arc"
     style="fill:#999999"
     id="rock0a"
     sodipodi:cx="139.5"
     sodipodi:cy="275"
     sodipodi:rx="55.5"
     sodipodi:ry="42"
     d="m 195,275 a 55.5,42 0 1 1 -111,0 55.5,42 0 1 1 111,0 z"
     transform="translate(-9,107)"
     inkscape:label="#path2996" />
       <path
     sodipodi:type="arc"
     style="fill:#999999"
     id="path2870"
     sodipodi:cx="186.5"
     sodipodi:cy="386"
     sodipodi:rx="22.5"
     sodipodi:ry="34"
     d="m 209,386 a 22.5,34 0 1 1 -45,0 22.5,34 0 1 1 45,0 z" />
     </g>
     <g id="rock1">
  <path
     transform="translate(188.5,94)"
     sodipodi:type="arc"
     style="fill:#999999"
     id="rock1a"
     sodipodi:cx="139.5"
     sodipodi:cy="275"
     sodipodi:rx="55.5"
     sodipodi:ry="42"
     d="m 195,275 a 55.5,42 0 1 1 -111,0 55.5,42 0 1 1 111,0 z"
     inkscape:label="#path2996-1" />
     </g><g id="rock3">
  <path
     transform="translate(562.5,98)"
     sodipodi:type="arc"
     style="fill:#999999"
     id="rock3a"
     sodipodi:cx="139.5"
     sodipodi:cy="275"
     sodipodi:rx="55.5"
     sodipodi:ry="42"
     d="m 195,275 a 55.5,42 0 1 1 -111,0 55.5,42 0 1 1 111,0 z"
     inkscape:label="#path2996-0" /></g>
     <g id="rock2">
  <path
     transform="translate(383.5,110)"
     sodipodi:type="arc"
     style="fill:#999999"
     id="rock2a"
     sodipodi:cx="139.5"
     sodipodi:cy="275"
     sodipodi:rx="55.5"
     sodipodi:ry="42"
     d="m 195,275 a 55.5,42 0 1 1 -111,0 55.5,42 0 1 1 111,0 z"
     inkscape:label="#path2996-08" /></g>
  <rect
     style="fill:#ffff00"
     id="barge"
     width="134"
     height="81"
     x="66"
     y="171" />
  <svg
     id="panda"
     version="1.1"
     inkscape:version="0.47pre4 r22446"
     width="100%"
     height="100%"
     x="340"
     y="511">
    <path
       transform="matrix(0,0.07609203,-0.09104005,0,46.843,1.452792)"
       sodipodi:open="true"
       sodipodi:end="5.973337"
       sodipodi:start="1.5423614"
       d="M 131.13629,137.92395 C 103.70157,138.67387 80.828773,117.90806 80.048459,91.542232 79.268144,65.176401 100.87581,43.194748 128.31052,42.444836 c 22.12156,-0.604681 41.99353,12.921721 48.74143,33.177204"
       sodipodi:ry="47.758865"
       sodipodi:rx="49.695034"
       sodipodi:cy="90.184395"
       sodipodi:cx="129.7234"
       id="path7058"
       style="fill:#000000;fill-opacity:1;stroke:#e40000;stroke-opacity:0.85271319"
       sodipodi:type="arc" />
    <path
       transform="matrix(0.09104005,0,0,0.07609203,1.73367,7.317889)"
       sodipodi:open="true"
       sodipodi:end="5.973337"
       sodipodi:start="1.5423614"
       d="M 131.13629,137.92395 C 103.70157,138.67387 80.828773,117.90806 80.048459,91.542232 79.268144,65.176401 100.87581,43.194748 128.31052,42.444836 c 22.12156,-0.604681 41.99353,12.921721 48.74143,33.177204"
       sodipodi:ry="47.758865"
       sodipodi:rx="49.695034"
       sodipodi:cy="90.184395"
       sodipodi:cx="129.7234"
       id="path7054"
       style="fill:#000000;fill-opacity:1;stroke:#e40000;stroke-opacity:0.85271319"
       sodipodi:type="arc" />
    <path
       transform="matrix(0.15410253,0,0,0.11828343,-19.0631,-2.224306)"
       d="m 400.14185,194.73758 c 0,49.18859 -42.76475,89.06383 -95.51774,89.06383 -52.75298,0 -95.51773,-39.87524 -95.51773,-89.06383 0,-49.18859 42.76475,-89.06383 95.51773,-89.06383 52.75299,0 95.51774,39.87524 95.51774,89.06383 z"
       sodipodi:ry="89.063828"
       sodipodi:rx="95.517731"
       sodipodi:cy="194.73758"
       sodipodi:cx="304.62411"
       id="path2312"
       style="fill:#ffffff;fill-opacity:1;stroke:#000000;stroke-opacity:1"
       sodipodi:type="arc" />
    <path
       transform="matrix(0.05246881,0,0,0.05034003,5.31626,8.944247)"
       d="m 400.14185,194.73758 c 0,49.18859 -42.76475,89.06383 -95.51774,89.06383 -52.75298,0 -95.51773,-39.87524 -95.51773,-89.06383 0,-49.18859 42.76475,-89.06383 95.51773,-89.06383 52.75299,0 95.51774,39.87524 95.51774,89.06383 z"
       sodipodi:ry="89.063828"
       sodipodi:rx="95.517731"
       sodipodi:cy="194.73758"
       sodipodi:cx="304.62411"
       id="path4304"
       style="fill:#ffffff;fill-opacity:1;stroke:#000000;stroke-opacity:1"
       sodipodi:type="arc" />
    <path
       transform="matrix(0.0481845,0,0,0.04705107,19.43026,9.14275)"
       d="m 400.14185,194.73758 c 0,49.18859 -42.76475,89.06383 -95.51774,89.06383 -52.75298,0 -95.51773,-39.87524 -95.51773,-89.06383 0,-49.18859 42.76475,-89.06383 95.51773,-89.06383 52.75299,0 95.51774,39.87524 95.51774,89.06383 z"
       sodipodi:ry="89.063828"
       sodipodi:rx="95.517731"
       sodipodi:cy="194.73758"
       sodipodi:cx="304.62411"
       id="path4312"
       style="fill:#ffffff;fill-opacity:1;stroke:#000000;stroke-opacity:1"
       sodipodi:type="arc" />
    <path
       transform="matrix(0.02610795,0,0,0.04876649,13.46393,9.250675)"
       d="m 400.14185,194.73758 c 0,49.18859 -42.76475,89.06383 -95.51774,89.06383 -52.75298,0 -95.51773,-39.87524 -95.51773,-89.06383 0,-49.18859 42.76475,-89.06383 95.51773,-89.06383 52.75299,0 95.51774,39.87524 95.51774,89.06383 z"
       sodipodi:ry="89.063828"
       sodipodi:rx="95.517731"
       sodipodi:cy="194.73758"
       sodipodi:cx="304.62411"
       id="path4314"
       style="fill:#000000;fill-opacity:1;stroke:#000000;stroke-opacity:1"
       sodipodi:type="arc" />
    <path
       transform="matrix(0.02121013,0,0,0.04713318,27.58854,9.077653)"
       d="m 400.14185,194.73758 c 0,49.18859 -42.76475,89.06383 -95.51774,89.06383 -52.75298,0 -95.51773,-39.87524 -95.51773,-89.06383 0,-49.18859 42.76475,-89.06383 95.51773,-89.06383 52.75299,0 95.51774,39.87524 95.51774,89.06383 z"
       sodipodi:ry="89.063828"
       sodipodi:rx="95.517731"
       sodipodi:cy="194.73758"
       sodipodi:cx="304.62411"
       id="path5285"
       style="fill:#000000;fill-opacity:1;stroke:#000000;stroke-opacity:1"
       sodipodi:type="arc" />
    <path
       id="path2164"
       d="m 19.83062,15.064167 c 0,0 2.46777,1.178617 1.52767,2.062579 -0.9401,0.883963 -2.46777,0.196436 -2.46777,0.196436"
       style="fill:#ffffff;fill-opacity:1;fill-rule:evenodd;stroke:#000000;stroke-width:0.08323114px;stroke-linecap:butt;stroke-linejoin:miter;stroke-opacity:1" />
    <path
       id="path6059"
       d="m 32.81876,14.58845 c 0,0 2.15341,1.044762 1.33306,1.828335 -0.82035,0.783571 -2.15341,0.174127 -2.15341,0.174127"
       style="fill:#ffffff;fill-opacity:1;fill-rule:evenodd;stroke:#000000;stroke-width:0.0732014px;stroke-linecap:butt;stroke-linejoin:miter;stroke-opacity:1" />
    <path
       transform="matrix(0.112249,-0.02725684,0.03277975,0.09430312,-12.52399,11.431409)"
       d="m 321.40425,222.48936 c 0,4.63371 -13.0028,8.39008 -29.04256,8.39008 -16.03975,0 -29.04255,-3.75637 -29.04255,-8.39008 0,-4.6337 13.0028,-8.39007 29.04255,-8.39007 16.03976,0 29.04256,3.75637 29.04256,8.39007 z"
       sodipodi:ry="8.3900709"
       sodipodi:rx="29.042553"
       sodipodi:cy="222.48936"
       sodipodi:cx="292.36169"
       id="path6061"
       style="fill:#000000;fill-opacity:1;stroke:#e40000;stroke-opacity:0.85271319"
       sodipodi:type="arc" />
    <path
       id="path7038"
       d="m 27.939,25.278847 c 0,0.398637 0,1.454601 0,2.160798 0,0.889443 -1.65383,1.099533 -1.99772,0.883963"
       style="fill:none;stroke:#000000;stroke-width:0.08323114px;stroke-linecap:butt;stroke-linejoin:miter;stroke-opacity:1" />
    <path
       id="path7040"
       d="m 27.99775,25.387091 c 0,0.398637 0,1.454601 0,2.160798 0,0.889443 1.65383,1.099531 1.99772,0.883964"
       style="fill:none;stroke:#000000;stroke-width:0.08323114px;stroke-linecap:butt;stroke-linejoin:miter;stroke-opacity:1" />
    <path
       transform="matrix(0.09104005,0,0,0.07609203,8.19687,8.594725)"
       sodipodi:open="true"
       sodipodi:end="5.973337"
       sodipodi:start="1.5423614"
       d="M 65.38307,106.95279 C 48.9935,107.40882 35.32923,94.780968 34.863068,78.747693 34.396906,62.714418 47.305379,49.347197 63.694948,48.891169 76.910428,48.523458 88.78199,56.748973 92.813207,69.066496"
       sodipodi:ry="29.042553"
       sodipodi:rx="29.687943"
       sodipodi:cy="77.921982"
       sodipodi:cx="64.539009"
       id="path7044"
       style="fill:#fffffe;fill-opacity:1;stroke:#000000;stroke-opacity:0.85271319"
       sodipodi:type="arc" />
    <path
       transform="matrix(0,0.07609203,-0.09104005,0,45.30954,6.715458)"
       sodipodi:open="true"
       sodipodi:end="5.973337"
       sodipodi:start="1.5423614"
       d="M 65.38307,106.95279 C 48.9935,107.40882 35.32923,94.780968 34.863068,78.747693 34.396906,62.714418 47.305379,49.347197 63.694948,48.891169 76.910428,48.523458 88.78199,56.748973 92.813207,69.066496"
       sodipodi:ry="29.042553"
       sodipodi:rx="29.687943"
       sodipodi:cy="77.921982"
       sodipodi:cx="64.539009"
       id="path7050"
       style="fill:#ffffff;fill-opacity:1;stroke:#000000;stroke-opacity:0.85271319"
       sodipodi:type="arc" />
    <path
       transform="matrix(0.10257785,-0.02610758,0.02381654,0.05542108,-16.90868,22.782121)"
       d="m 387.23404,401.26242 c 0,26.37649 -20.22657,47.75887 -45.17731,47.75887 -24.95074,0 -45.1773,-21.38238 -45.1773,-47.75887 0,-26.37649 20.22656,-47.75886 45.1773,-47.75886 24.95074,0 45.17731,21.38237 45.17731,47.75886 z"
       sodipodi:ry="47.758865"
       sodipodi:rx="45.177307"
       sodipodi:cy="401.26242"
       sodipodi:cx="342.05673"
       id="path8998"
       style="fill:url(#linearGradient9987);fill-opacity:1;stroke:#000000;stroke-width:15.99551773;stroke-miterlimit:4;stroke-opacity:0.85271319;stroke-dasharray:none"
       sodipodi:type="arc" />
    <path
       inkscape:connector-type="polyline"
       id="path9989"
       d="m 27.35558,31.319069 0,1.73489"
       style="fill:none;stroke:#000000;stroke-width:0.29074767px;stroke-linecap:butt;stroke-linejoin:miter;stroke-opacity:1" />
    <path
       inkscape:connector-type="polyline"
       id="path11936"
       d="m 29.02404,31.355299 0,1.678018"
       style="fill:none;stroke:#000000;stroke-width:0.28594247px;stroke-linecap:butt;stroke-linejoin:miter;stroke-opacity:1" />
    <path
       sodipodi:open="true"
       transform="matrix(0.05404867,0.04807469,-0.0497003,0.05228084,33.99954,8.769732)"
       sodipodi:end="5.0105573"
       sodipodi:start="1.3465078"
       d="m 139.3888,379.98985 c -30.26389,1.8306 -60.394418,-3.19055 -67.298421,-11.21507 -6.904003,-8.02452 12.032928,-16.01367 42.296821,-17.84428 9.59777,-0.58055 19.60228,-0.48251 29.01226,0.2843"
       sodipodi:ry="14.902953"
       sodipodi:rx="56.205421"
       sodipodi:cy="365.46017"
       sodipodi:cx="126.888"
       id="path11938"
       style="fill:none;stroke:#000000;stroke-opacity:0.85271319"
       sodipodi:type="arc" />
    <path
       id="path11942"
       d="m 20.41827,31.254711 c 0,0.02043 0,0.424136 0,0.647997"
       style="fill:none;stroke:#000000;stroke-width:0.08323114px;stroke-linecap:butt;stroke-linejoin:miter;stroke-opacity:1" />
    <path
       id="path11946"
       d="m 19.97247,31.173711 c 0,0.03129 0,0.4739 0,0.712799"
       style="fill:none;stroke:#000000;stroke-width:0.17471384px;stroke-linecap:butt;stroke-linejoin:miter;stroke-opacity:1" />
    <path
       id="path11950"
       d="m 20.8156,31.419825 c 0,0.02178 0,0.329741 0,0.495967"
       style="fill:none;stroke:#000000;stroke-width:0.07848793px;stroke-linecap:butt;stroke-linejoin:miter;stroke-opacity:1" />
    <path
       sodipodi:open="true"
       transform="matrix(-0.05404867,0.04807469,0.0497003,0.05228084,21.65631,8.337215)"
       sodipodi:end="5.0105573"
       sodipodi:start="1.3465078"
       d="m 139.3888,379.98985 c -30.26389,1.8306 -60.394418,-3.19055 -67.298421,-11.21507 -6.904003,-8.02452 12.032928,-16.01367 42.296821,-17.84428 9.59777,-0.58055 19.60228,-0.48251 29.01226,0.2843"
       sodipodi:ry="14.902953"
       sodipodi:rx="56.205421"
       sodipodi:cy="365.46017"
       sodipodi:cx="126.888"
       id="path11952"
       style="fill:none;stroke:#000000;stroke-opacity:0.85271319"
       sodipodi:type="arc" />
    <path
       id="path11954"
       d="m 35.23759,30.822193 c 0,0.02043 0,0.424136 0,0.647999"
       style="fill:none;stroke:#000000;stroke-width:0.08323114px;stroke-linecap:butt;stroke-linejoin:miter;stroke-opacity:1" />
    <path
       id="path11956"
       d="m 35.68338,30.741195 c 0,0.03129 0,0.473898 0,0.712796"
       style="fill:none;stroke:#000000;stroke-width:0.17471384px;stroke-linecap:butt;stroke-linejoin:miter;stroke-opacity:1" />
    <path
       id="path11958"
       d="m 34.84024,30.987309 c 0,0.02178 0,0.329739 0,0.495968"
       style="fill:none;stroke:#000000;stroke-width:0.07848793px;stroke-linecap:butt;stroke-linejoin:miter;stroke-opacity:1" />
    <path
       sodipodi:open="true"
       sodipodi:end="3.1415927"
       sodipodi:start="0"
       transform="matrix(0.07073764,-1.909522e-4,5.340163e-4,0.04685859,21.63066,25.56615)"
       d="m 72.104832,341.72302 c 0,20.41528 -5.10798,36.96514 -11.408993,36.96514 -6.301013,0 -11.408993,-16.54986 -11.408993,-36.96514 0,0 0,0 0,0"
       sodipodi:ry="36.965134"
       sodipodi:rx="11.408993"
       sodipodi:cy="341.72302"
       sodipodi:cx="60.695839"
       id="path13900"
       style="fill:none;stroke:#000000;stroke-width:1.24002588;stroke-linecap:butt;stroke-linejoin:round;stroke-miterlimit:4;stroke-opacity:0.85271319;stroke-dasharray:none"
       sodipodi:type="arc" />
    <path
       inkscape:connector-type="polyline"
       id="path14875"
       d="m 25.29102,41.619712 0,-2.980902"
       style="fill:none;stroke:#000000;stroke-width:0.06924664px;stroke-linecap:butt;stroke-linejoin:miter;stroke-opacity:1" />
    <path
       inkscape:connector-type="polyline"
       id="path14877"
       d="m 26.91876,41.608539 -0.0616,-2.916103"
       style="fill:none;stroke:#000000;stroke-width:0.06924664px;stroke-linecap:butt;stroke-linejoin:miter;stroke-opacity:1" />
    <path
       inkscape:transform-center-y="1.4626237"
       inkscape:transform-center-x="1.992401"
       sodipodi:open="true"
       sodipodi:end="3.1415927"
       sodipodi:start="0"
       transform="matrix(0.07073764,-1.909522e-4,5.340163e-4,0.04685859,23.84952,25.730066)"
       d="m 72.104832,341.72302 c 0,20.41528 -5.10798,36.96514 -11.408993,36.96514 -6.301013,0 -11.408993,-16.54986 -11.408993,-36.96514 0,0 0,0 0,0"
       sodipodi:ry="36.965134"
       sodipodi:rx="11.408993"
       sodipodi:cy="341.72302"
       sodipodi:cx="60.695839"
       id="path15848"
       style="fill:none;stroke:#000000;stroke-width:1.24002588;stroke-linecap:butt;stroke-linejoin:round;stroke-miterlimit:4;stroke-opacity:0.85271319;stroke-dasharray:none"
       sodipodi:type="arc" />
    <path
       inkscape:transform-center-y="-0.84031127"
       inkscape:transform-center-x="2.8081298"
       inkscape:connector-type="polyline"
       id="path15850"
       d="m 27.50988,41.78363 0,-2.980903"
       style="fill:none;stroke:#000000;stroke-width:0.06924664px;stroke-linecap:butt;stroke-linejoin:miter;stroke-opacity:1" />
    <path
       inkscape:transform-center-y="-0.81908527"
       inkscape:transform-center-x="1.2111899"
       inkscape:connector-type="polyline"
       id="path15852"
       d="m 29.13762,41.772456 -0.0616,-2.916103"
       style="fill:none;stroke:#000000;stroke-width:0.06924664px;stroke-linecap:butt;stroke-linejoin:miter;stroke-opacity:1" />
  </svg>
  
</svg>
